<svg width="314" height="229" viewBox="0 0 314 229" fill="none" xmlns="http://www.w3.org/2000/svg">
<path fill-rule="evenodd" clip-rule="evenodd" d="M263.41 67.1162C264.098 67.8908 264.846 68.6094 265.647 69.2655C270.973 73.6579 273.14 78.6528 272.993 83.684C272.801 83.4478 272.599 83.2147 272.392 82.9816C272.488 94.3548 260.561 106.052 246.337 111.561C239.48 114.219 234.764 117.773 231.587 121.893L226.134 150.821L214.538 149.558C201.961 148.805 181.596 149.353 166.342 158.492L153.218 170.839C151.832 172.94 150.652 175.17 149.692 177.499L131.555 148.699L108.632 116.326C119.79 147.669 120.003 172.744 120.003 172.744L108.511 216.141L106.9 215.872L106.753 216.317L105.926 220.482H107.075L108.511 224.823C108.511 224.823 115.852 224.663 115.693 226.27C115.533 227.878 111.547 230.611 101.327 227.717L98.4538 224.823C98.4538 224.823 97.017 223.376 99.8906 220.482H100.095L100.88 214.864L99.8786 214.694L108.496 171.3C101.312 165.354 88.3871 142.369 88.3871 142.369C88.3871 142.369 75.4589 165.351 68.2778 171.3L76.9017 214.706L75.9007 214.876L76.6973 220.494H76.9017C79.7753 223.388 78.3385 224.835 78.3385 224.835L75.4649 227.729C65.2509 230.623 61.2591 227.89 61.0998 226.282C60.9405 224.675 68.2808 224.835 68.2808 224.835L69.7176 220.494H70.8659L70.2286 217.291L70.0994 217.337L69.7447 215.908L68.2778 216.153L56.7864 172.756C56.7864 172.756 55.1902 156.845 68.2778 122.126L67.9592 75.3653L60.8052 76.4157L55.4818 81.7405L59.69 104.323L60.8353 105.807H60.8894C60.8894 105.807 65.317 111.534 63.8953 117.843C62.732 123.049 56.6781 112.606 54.6161 108.822L54.06 109.239L44.0054 78.8617C44.0054 78.8617 40.9724 73.2372 45.4422 70.1827L62.6779 52.8249C62.6779 52.8249 67.1656 49.7977 71.5512 49.6675C71.8428 48.7291 72.3628 47.7695 73.2946 47.3306L74.3437 40.9372C73.6494 37.5401 74.3265 34.0044 76.2254 31.1109C76.0217 31.0831 75.8206 31.0386 75.6242 30.9778C74.8522 30.6963 74.1556 30.2383 73.5892 29.6397C71.9029 28.0172 70.6434 25.8285 70.4811 23.4764C70.3815 22.0126 70.7468 20.5549 71.5242 19.314C72.016 18.4101 72.7435 17.6586 73.6283 17.1405C76.4628 15.5119 80.0759 16.7985 82.8112 18.5936C82.9264 18.6691 83.0427 18.7458 83.16 18.8231C85.4387 20.3253 88.093 22.0751 90.4973 20.9033C91.0197 20.6479 91.467 20.2724 91.9151 19.8963C92.1786 19.6751 92.4422 19.4538 92.7216 19.2565C95.6403 17.192 99.9868 18.2091 102.37 20.8821C104.754 23.5551 105.415 27.4238 105.013 30.9899C104.649 34.2085 103.507 37.2718 102.373 40.3133C102.25 40.6415 102.128 40.9695 102.007 41.2974C101.843 41.7994 101.622 42.2801 101.345 42.7293C101.213 42.9845 101.046 43.2199 100.849 43.4285C100.257 44.02 99.4093 44.2734 98.5921 44.1036C97.892 45.5182 96.9428 46.7931 95.7906 47.8664C102.039 47.5408 108.227 46.4666 114.223 44.6667L115.257 43.7948L113.135 20.7156L112.72 20.9124C112.72 20.9124 108.947 2.58282 114.012 6.56659C117.806 9.56652 118.843 14.404 119.122 16.6259L119.236 16.5563L125.23 42.4719C130.569 42.1329 136.511 42.5718 142.496 43.4467C161.52 46.1348 181.185 53.3456 183.571 54.2537C187.443 54.1811 222.161 52.9308 272.058 31.4954C272.058 31.4954 271.845 31.7134 271.472 32.1008L272.674 31.5923C272.674 31.5923 264.628 39.4327 261.117 48.7806L260.377 49.0561C258.141 55.2587 257.949 62.0578 263.41 67.6702V67.1162ZM108.196 111.643L108.211 112.176L108.857 112.69L108.196 111.643Z" fill="url(#paint0_linear)"/>
<path d="M63.7996 105.43H63.7455L61.1934 102L57.0631 106.304L57.52 107.018L57 107.149C57 107.149 65.3357 123.925 66.7245 117.557C68.1133 111.19 63.7996 105.43 63.7996 105.43Z" fill="#FDB797"/>
<path d="M80.0922 48.608C80.0922 48.608 95.3792 53.2199 116.785 46.3005C138.19 39.3811 182.525 56.2935 182.525 56.2935C182.525 56.2935 217.688 56.2935 269.67 34C269.67 34 245.973 57.0627 262.79 70.9015C279.607 84.7403 264.32 104.726 244.444 112.415C224.568 120.103 223.041 135.477 224.568 150.085C226.095 164.693 224.568 150.855 224.568 150.855C224.568 150.855 164.943 140.092 149.653 177L73.9768 57.0657C73.9768 57.0657 69.3909 47.8418 80.0922 48.608Z" fill="#6C63FF"/>
<mask id="mask0" mask-type="alpha" maskUnits="userSpaceOnUse" x="117" y="55" width="197" height="143">
<path fill-rule="evenodd" clip-rule="evenodd" d="M124.119 69.7645C124.119 69.7645 139.398 74.3703 160.793 67.4601C182.188 60.55 226.501 77.4398 226.501 77.4398C226.501 77.4398 261.647 77.4398 313.604 55.1761C313.604 55.1761 289.919 78.2079 306.727 92.0282C323.536 105.848 308.256 125.808 288.39 133.486C268.524 141.164 266.998 156.518 268.524 171.106C270.05 185.695 268.524 171.874 268.524 171.874C268.524 171.874 208.928 161.127 193.646 197.985L118.006 78.2109C118.006 78.2109 113.423 68.9994 124.119 69.7645Z" fill="white"/>
</mask>
<g mask="url(#mask0)">
<path opacity="0.1" d="M41.9044 25.3009L232.151 162.727L243.612 128.947L41.9044 25.3009Z" fill="black"/>
<path opacity="0.1" d="M53.3649 68.295L158.802 175.779L174.085 164.263L53.3649 68.295Z" fill="black"/>
</g>
<g opacity="0.1">
<path d="M84.9921 59.4457C84.9921 59.4457 100.272 64.0236 121.667 57.1552C143.062 50.2868 187.369 67.0776 187.369 67.0776C187.369 67.0776 215.801 67.0776 259.322 50.9748C262.763 41.8854 270.65 34.2625 270.65 34.2625C218.68 56.3917 183.547 56.3917 183.547 56.3917C183.547 56.3917 139.231 39.604 117.839 46.4724C96.4465 53.3408 81.1639 48.7628 81.1639 48.7628C70.4679 47.9993 75.0515 57.1582 75.0515 57.1582L78.1968 62.1104C78.8525 60.4415 80.6805 59.1379 84.9921 59.4457Z" fill="black"/>
<path d="M263.782 70.892C262.996 70.2537 262.263 69.5544 261.588 68.8007C261.413 73.3062 262.969 77.7876 267.601 81.5749C268.835 82.5723 269.967 83.6904 270.979 84.9125C271.127 80.0177 269.003 75.1591 263.782 70.892Z" fill="black"/>
</g>
<path d="M108 212.856L106.601 220H101L102.402 210L108 212.856Z" fill="#FDB797"/>
<path opacity="0.1" d="M108 213L107.601 214L102 212.668L102.399 212L108 213Z" fill="black"/>
<path d="M72 212.856L73.4 220H79L77.6 210L72 212.856Z" fill="#FDB797"/>
<path opacity="0.1" d="M72 213.286L72.3988 215L78 212.859V212L72 213.286Z" fill="black"/>
<path d="M120 20.8858C120 20.8858 119.837 13.5892 114.683 9.57231C109.529 5.55542 113.386 24 113.386 24L120 20.8858Z" fill="#FDB797"/>
<path d="M78.2656 218H71.3278L69.9403 222.595C69.9403 222.595 62.8477 222.424 63.0025 224.124C63.1573 225.824 67.0103 228.719 76.878 225.654L79.6531 222.595C79.6531 222.595 81.0407 221.059 78.2656 218Z" fill="#333333"/>
<path d="M101.734 218H108.672L110.06 222.595C110.06 222.595 117.152 222.424 116.998 224.124C116.843 225.824 112.99 228.719 103.122 225.654L100.347 222.595C100.347 222.595 98.9593 221.059 101.734 218Z" fill="#333333"/>
<path d="M109.687 121H70.3119C57.4967 154.596 59.0601 169.996 59.0601 169.996L70.3119 211.991L78.7629 210.591L70.3119 168.606C77.3443 162.851 90.0056 140.608 90.0056 140.608C90.0056 140.608 102.661 162.838 109.687 168.606L101.236 210.6L109.687 212L120.939 170.005C120.939 170.005 122.511 154.596 109.687 121Z" fill="#333333"/>
<path opacity="0.1" d="M70 121C70 121 92.1166 127.75 109 121H70Z" fill="black"/>
<path d="M68.7515 70.9807L57.3707 82.243L61.6446 104.771L55.9541 109L45.9959 79.4335C45.9959 79.4335 42.9919 73.9594 47.4185 70.9747L64.4929 54.0783C64.4929 54.0783 71.8196 49.2205 76.8568 51.7098C81.8939 54.1991 68.6539 70.8025 68.6539 70.8025" fill="#F96060"/>
<path d="M68 71.2927L69.406 122.222C69.406 122.222 91.7339 130.722 108.778 122.222L107.372 74.2797L107.013 72.6951L107.273 71.915L124.17 57.8181C128.801 55.2531 126.354 49.4978 126.354 49.4978L119.294 19L113.298 22.6972L115.41 45.6275L103.378 55.6689L103.076 55.6538L72.2302 54.3181" fill="#F96060"/>
<path d="M84 52.5C84 49.4624 86.4624 47 89.5 47C92.5376 47 95 49.4624 95 52.5V53.5C95 56.5376 92.5376 59 89.5 59C86.4624 59 84 56.5376 84 53.5V52.5Z" fill="#FDB797"/>
<path opacity="0.1" d="M85 51.3709C88.3296 52.4941 92.0068 52.0994 95 50.2977C94.253 48.3223 92.3105 47.0061 90.1333 47C87.5301 47.0086 85.3355 48.8773 85 51.3709H85Z" fill="black"/>
<circle cx="88.5" cy="39.5" r="12.5" fill="#FDB797"/>
<path opacity="0.1" d="M79.4624 32.6476C78.6703 32.7443 77.8666 32.7004 77.0907 32.5182C76.3291 32.2505 75.6422 31.8155 75.0839 31.2473C73.4176 29.7 72.177 27.6348 72.0159 25.405C71.8547 23.1751 72.9281 20.8129 74.9258 19.7068C77.7232 18.1653 81.2899 19.3832 83.9869 21.0835C86.3069 22.5544 89.077 24.4401 91.5703 23.2722C92.3882 22.8898 93.0207 22.2161 93.7656 21.7131C96.6451 19.7568 100.932 20.7217 103.283 23.2546C105.633 25.7874 106.293 29.4529 105.889 32.8359C105.484 36.2189 104.146 39.4166 102.918 42.6055C102.727 43.2347 102.403 43.8187 101.966 44.3205C100.47 45.8061 97.6698 44.653 96.6847 42.8114C94.9728 39.6078 96.6847 34.0538 92.6406 32.1858C89.4206 30.7031 82.9196 32.4299 79.4624 32.6476Z" fill="black"/>
<path d="M80.4624 31.6476C79.6703 31.7443 78.8666 31.7004 78.0907 31.5182C77.3291 31.2505 76.6422 30.8155 76.0839 30.2473C74.4176 28.7 73.177 26.6348 73.0159 24.405C72.8547 22.1751 73.9281 19.8129 75.9258 18.7068C78.7232 17.1653 82.2899 18.3832 84.9869 20.0835C87.3069 21.5544 90.077 23.4401 92.5703 22.2722C93.3882 21.8898 94.0207 21.2161 94.7656 20.7131C97.6451 18.7568 101.932 19.7217 104.283 22.2546C106.633 24.7874 107.293 28.4529 106.889 31.8359C106.484 35.2189 105.128 38.4166 103.912 41.6055C103.721 42.2347 103.397 42.8187 102.96 43.3205C101.464 44.8061 98.6638 43.653 97.6786 41.8114C95.9667 38.6078 97.6786 33.0538 93.6345 31.1858C90.4297 29.7031 83.9166 31.4329 80.4624 31.6476Z" fill="#333333"/>
<ellipse cx="95.5" cy="39.5" rx="1.5" ry="2.5" fill="#FDB797"/>
<path opacity="0.1" d="M68 71L71 72.662L68 77V71Z" fill="black"/>
<path opacity="0.1" d="M107.841 72L105 74.6322L106.893 77L108 74.3678L107.841 72Z" fill="black"/>
<path d="M90 58.5991V61C90 61 73.4223 57.8019 73 53L83.941 53.8003L90 58.5991Z" fill="#6C63FF"/>
<path d="M90 58.5991V61C90 61 106.578 57.8019 107 53L96.059 53.8003L90 58.5991Z" fill="#6C63FF"/>
<path opacity="0.1" d="M192 84L247 96.7495L227.138 105L192 84Z" fill="black"/>
<path d="M73 52.9984C73 52.9984 73 48 76.3344 48C79.6688 48 83 58 83 58L73 52.9984Z" fill="#6C63FF"/>
<circle opacity="0.5" cx="3.5" cy="87.5" r="1.5" fill="#F55F44"/>
<circle opacity="0.5" cx="28.5" cy="137.5" r="1.5" fill="#F55F44"/>
<circle opacity="0.5" cx="251.5" cy="4.5" r="1.5" fill="#F55F44"/>
<path opacity="0.5" d="M152.596 7.54203C151.956 7.26362 151.626 6.55061 151.829 5.8834C151.845 5.8341 151.854 5.78308 151.858 5.73144C151.877 5.42771 151.694 5.14759 151.408 5.04245C151.122 4.93732 150.801 5.03209 150.619 5.27556C150.587 5.31752 150.561 5.36312 150.541 5.41136C150.261 6.04775 149.55 6.3753 148.884 6.17439C148.835 6.15864 148.784 6.14887 148.732 6.14529C148.428 6.12641 148.148 6.30913 148.042 6.59471C147.937 6.8803 148.032 7.20103 148.276 7.38361C148.318 7.41487 148.363 7.44093 148.412 7.4612C149.046 7.74294 149.371 8.45293 149.169 9.1166C149.153 9.1659 149.143 9.21692 149.14 9.26856C149.121 9.57229 149.304 9.85241 149.59 9.95755C149.875 10.0627 150.196 9.96791 150.379 9.72444C150.411 9.68248 150.437 9.63688 150.457 9.58864C150.736 8.94942 151.449 8.62001 152.117 8.82238C152.166 8.83812 152.217 8.84789 152.269 8.85148C152.572 8.86978 152.851 8.68812 152.957 8.40402C153.062 8.11991 152.97 7.80016 152.729 7.61639C152.687 7.58648 152.643 7.56152 152.596 7.54203Z" fill="#4D8AF0"/>
<path opacity="0.5" d="M254.589 134.539C253.951 134.261 253.622 133.549 253.824 132.882C253.84 132.833 253.849 132.782 253.853 132.73C253.872 132.427 253.689 132.147 253.404 132.042C253.119 131.937 252.799 132.032 252.616 132.275C252.585 132.317 252.559 132.363 252.539 132.411C252.261 133.049 251.549 133.378 250.882 133.176C250.833 133.16 250.782 133.151 250.73 133.147C250.427 133.128 250.147 133.311 250.042 133.596C249.937 133.881 250.032 134.201 250.275 134.384C250.317 134.415 250.363 134.441 250.411 134.461C251.049 134.739 251.378 135.451 251.176 136.118C251.16 136.167 251.151 136.218 251.147 136.27C251.128 136.573 251.311 136.853 251.596 136.958C251.881 137.063 252.201 136.968 252.384 136.725C252.415 136.683 252.441 136.637 252.461 136.589C252.739 135.951 253.451 135.622 254.118 135.824C254.167 135.84 254.218 135.849 254.27 135.853C254.573 135.872 254.853 135.689 254.958 135.404C255.063 135.119 254.968 134.799 254.725 134.616C254.683 134.585 254.637 134.559 254.589 134.539Z" fill="#4D8AF0"/>
<circle opacity="0.5" cx="176.5" cy="193.5" r="1.5" fill="#47E6B1"/>
<circle opacity="0.5" cx="3.5" cy="179.5" r="1.5" fill="#47E6B1"/>
<circle opacity="0.5" cx="170.5" cy="27.5" r="1.5" fill="#47E6B1"/>
<g opacity="0.5">
<path d="M2.427 0H3.468V5.895H2.427V0Z" fill="#47E6B1"/>
<path d="M5.89502 2.427V3.468L1.95503e-05 3.468V2.427L5.89502 2.427Z" fill="#47E6B1"/>
</g>
<g opacity="0.5">
<path d="M21.48 57.1286H22.4714V62.7429H21.48V57.1286Z" fill="#47E6B1"/>
<path d="M24.7828 59.44V60.4314H19.1686V59.44H24.7828Z" fill="#47E6B1"/>
</g>
<g opacity="0.5">
<path d="M213.268 31.015H214.309V36.91H213.268V31.015Z" fill="#47E6B1"/>
<path d="M216.739 33.442V34.483H210.844V33.442H216.739Z" fill="#47E6B1"/>
</g>
<defs>
<linearGradient id="paint0_linear" x1="273" y1="228.985" x2="273" y2="6.00354" gradientUnits="userSpaceOnUse">
<stop stop-color="#808080" stop-opacity="0.25"/>
<stop offset="0.54" stop-color="#808080" stop-opacity="0.12"/>
<stop offset="1" stop-color="#808080" stop-opacity="0.1"/>
</linearGradient>
</defs>
</svg>
