<svg width="164" height="171" viewBox="0 0 164 171" fill="none" xmlns="http://www.w3.org/2000/svg">
<defs>
<linearGradient id="paint0_linear" x1="137.009" y1="161.011" x2="137.009" y2="96.0032" gradientUnits="userSpaceOnUse">
<stop stop-color="#808080" stop-opacity="0.25"/>
<stop offset="0.54" stop-color="#808080" stop-opacity="0.12"/>
<stop offset="1" stop-color="#808080" stop-opacity="0.1"/>
</linearGradient>
<linearGradient id="paint1_linear" x1="22904.4" y1="9746.39" x2="22904.4" y2="4818.17" gradientUnits="userSpaceOnUse">
<stop stop-color="#808080" stop-opacity="0.25"/>
<stop offset="0.54" stop-color="#808080" stop-opacity="0.12"/>
<stop offset="1" stop-color="#808080" stop-opacity="0.1"/>
</linearGradient>
<linearGradient id="paint2_linear" x1="63584" y1="85697.6" x2="63584" y2="9460.82" gradientUnits="userSpaceOnUse">
<stop stop-color="#808080" stop-opacity="0.25"/>
<stop offset="0.54" stop-color="#808080" stop-opacity="0.12"/>
<stop offset="1" stop-color="#808080" stop-opacity="0.1"/>
</linearGradient>
<linearGradient id="paint3_linear" x1="25600.3" y1="37250.4" x2="25600.3" y2="20060.3" gradientUnits="userSpaceOnUse">
<stop stop-color="#808080" stop-opacity="0.25"/>
<stop offset="0.54" stop-color="#808080" stop-opacity="0.12"/>
<stop offset="1" stop-color="#808080" stop-opacity="0.1"/>
</linearGradient>
<linearGradient id="paint4_linear" x1="48203.5" y1="13391.8" x2="48203.5" y2="12287.8" gradientUnits="userSpaceOnUse">
<stop stop-color="#808080" stop-opacity="0.25"/>
<stop offset="0.54" stop-color="#808080" stop-opacity="0.12"/>
<stop offset="1" stop-color="#808080" stop-opacity="0.1"/>
</linearGradient>
<linearGradient id="paint5_linear" x1="16348.8" y1="14101.3" x2="16348.8" y2="10646.1" gradientUnits="userSpaceOnUse">
<stop stop-color="#808080" stop-opacity="0.25"/>
<stop offset="0.54" stop-color="#808080" stop-opacity="0.12"/>
<stop offset="1" stop-color="#808080" stop-opacity="0.1"/>
</linearGradient>
<linearGradient id="paint6_linear" x1="13065.5" y1="14578.5" x2="13065.5" y2="11949.8" gradientUnits="userSpaceOnUse">
<stop stop-color="#808080" stop-opacity="0.25"/>
<stop offset="0.54" stop-color="#808080" stop-opacity="0.12"/>
<stop offset="1" stop-color="#808080" stop-opacity="0.1"/>
</linearGradient>
<linearGradient id="paint7_linear" x1="18088.9" y1="15273.1" x2="18088.9" y2="8082.25" gradientUnits="userSpaceOnUse">
<stop stop-color="#808080" stop-opacity="0.25"/>
<stop offset="0.54" stop-color="#808080" stop-opacity="0.12"/>
<stop offset="1" stop-color="#808080" stop-opacity="0.1"/>
</linearGradient>
<linearGradient id="paint8_linear" x1="19940" y1="12432.2" x2="19940" y2="8184.22" gradientUnits="userSpaceOnUse">
<stop stop-color="#808080" stop-opacity="0.25"/>
<stop offset="0.54" stop-color="#808080" stop-opacity="0.12"/>
<stop offset="1" stop-color="#808080" stop-opacity="0.1"/>
</linearGradient>
</defs>
<circle opacity="0.2" cx="82" cy="89" r="67" stroke="#6074F9" stroke-width="2" stroke-dasharray="12"/>
<circle opacity="0.2" cx="82" cy="89" r="81" stroke="#6074F9" stroke-width="2" stroke-dasharray="12"/>
<path d="M137 114.258C137.002 104.838 129.78 96.9631 120.328 96.0811C110.876 95.1992 102.301 101.6 100.533 110.855L44 109.333L44.6206 118.971C44.6206 118.971 36.5594 137.428 78.9268 142.345V161H127.906V129.984C133.534 126.714 136.995 120.729 137 114.258Z" fill="url(#paint0_linear)"/>
<path d="M46.5998 120.325C46.5998 120.325 38.9154 138.181 79.3055 142.945V161H126V113.184L46 111L46.5998 120.325Z" fill="#F2B396"/>
<path d="M69.6666 46.0777C67.0851 49.9979 61.6985 51.1759 57.6101 48.7142L32.0757 32.5212C28.0022 30.0368 26.7781 24.8529 29.336 20.9184C31.9171 17.0035 37.2968 15.8262 41.3833 18.2818L66.9177 34.4749C70.9945 36.9563 72.2227 42.1408 69.6666 46.0777Z" fill="url(#paint1_linear)"/>
<path d="M68.786 44.3172C66.4455 47.9979 61.5617 49.104 57.8548 46.7929L34.6954 31.5769C31.0021 29.2443 29.8922 24.3771 32.2112 20.6828C34.5518 17.0021 39.4356 15.896 43.1424 18.2071L66.2974 33.4142C69.9977 35.7456 71.1103 40.6199 68.786 44.3172Z" fill="#F2B396"/>
<circle cx="116.5" cy="115.5" r="17.5" fill="#F2B396"/>
<path d="M44 12.25C44 5.48451 49.4845 0 56.25 0H103.75C110.515 0 116 5.48451 116 12.25V118.75C116 125.515 110.515 131 103.75 131H56.25C49.4845 131 44 125.515 44 118.75V12.25Z" fill="url(#paint2_linear)"/>
<path d="M44 15.64C44 8.10684 50.1068 2 57.64 2H101.36C108.893 2 115 8.10684 115 15.64V116.36C115 123.893 108.893 130 101.36 130H57.64C50.1068 130 44 123.893 44 116.36V15.64Z" fill="white"/>
<path d="M98.2197 5C97.7981 7.79154 95.4043 9.85801 92.5826 9.86628H68.2218C65.401 9.8569 63.0084 7.7907 62.5869 5H49.6803C48.9696 4.9994 48.2879 5.28144 47.7852 5.78401C47.2825 6.28658 47 6.96846 47 7.67949V123.318C46.9994 124.029 47.2813 124.711 47.7836 125.214C48.2859 125.717 48.9674 126 49.678 126H111.32C112.03 126.001 112.712 125.719 113.215 125.216C113.718 124.713 114 124.032 114 123.321V7.68174C114.001 6.97071 113.719 6.28859 113.216 5.7856C112.714 5.28261 112.033 5 111.322 5H98.2197Z" fill="#F96060"/>
<path d="M72 7C72 6.44772 72.4477 6 73 6H87C87.5523 6 88 6.44772 88 7C88 7.55228 87.5523 8 87 8H73C72.4477 8 72 7.55228 72 7Z" fill="#DBDBDB"/>
<circle cx="92" cy="7" r="1" fill="#DBDBDB"/>
<path d="M127.267 117.764C122.278 118.932 118.853 115.64 117.7 110.595L106.235 67.533C105.095 62.4686 108.21 57.4228 113.21 56.238C118.216 55.0842 123.204 58.2359 124.376 63.2932L133.731 107.467C134.885 112.514 132.254 116.597 127.267 117.764Z" fill="url(#paint3_linear)"/>
<path d="M108.802 68.417C107.808 64.1122 110.491 59.8161 114.796 58.8214C119.101 57.8268 123.397 60.5102 124.392 64.8151L135.198 111.583C136.192 115.888 133.509 120.184 129.204 121.179C124.899 122.173 120.603 119.49 119.608 115.185L108.802 68.417Z" fill="#F2B396"/>
<path d="M68 154H135V170H68V154Z" fill="url(#paint4_linear)"/>
<path d="M69 156H132V168H69V156Z" fill="#6074F9"/>
<path d="M59.7332 92.0208C57.2857 95.9976 52.1777 97.1929 48.3009 94.6959L31.8654 83.7482C28.0023 81.2287 26.8412 75.9703 29.2668 71.9792C31.7143 68.0024 36.8223 66.8071 40.6991 69.3041L57.1346 80.2518C60.9977 82.7713 62.1588 88.0297 59.7332 92.0208Z" fill="url(#paint5_linear)"/>
<path d="M54.7177 115.121C52.2388 118.997 47.0641 120.163 43.1366 117.729L32.9163 110.348C29.0025 107.893 27.826 102.768 30.2833 98.8787C32.7622 95.0025 37.9369 93.8373 41.8644 96.2709L52.0847 103.654C55.9971 106.109 57.1735 111.232 54.7177 115.121Z" fill="url(#paint6_linear)"/>
<g opacity="0.5">
<ellipse cx="80.5045" cy="65.9978" rx="20.3731" ry="19.9867" fill="url(#paint7_linear)"/>
</g>
<circle cx="80" cy="65" r="19" fill="white"/>
<path d="M79.1992 69.2845L89.3984 55L93 57.8578L79.1992 75L69 64.1435L72.0006 62.9987L79.1992 69.2845Z" fill="#F96060"/>
<path d="M55.7709 115.282C53.3827 118.998 48.3994 120.114 44.6171 117.781L34.7706 110.715C31.0021 108.36 29.8696 103.447 32.2359 99.7176C34.6241 96.0021 39.6074 94.8855 43.3897 97.2185L53.2339 104.299C56.9948 106.652 58.1274 111.555 55.7709 115.282Z" fill="#F2B396"/>
<path d="M57.81 91.3057C55.5106 94.9979 50.7125 96.1075 47.0706 93.7891L31.6305 83.6224C28.002 81.2825 26.9116 76.4001 29.19 72.6943C31.4894 69.0021 36.2876 67.8925 39.9294 70.2109L55.3695 80.3776C58.998 82.7175 60.0884 87.5999 57.81 91.3057Z" fill="#F2B396"/>
<path d="M65.6755 70.0152C63.1154 73.9979 57.7745 75.1945 53.7206 72.6938L32.0408 58.7737C28.0021 56.2492 26.7886 50.9824 29.3245 46.9848C31.8846 43.0021 37.2255 41.8055 41.2794 44.3062L62.9592 58.2263C66.9978 60.7508 68.2113 66.0176 65.6755 70.0152Z" fill="url(#paint8_linear)"/>
<path d="M62.778 69.2721C60.4154 72.9979 55.4855 74.1175 51.7436 71.7781L31.7303 58.7553C28.0021 56.3942 26.8818 51.4674 29.2227 47.7279C31.5853 44.0021 36.5152 42.8825 40.257 45.2219L60.2681 58.2447C63.9971 60.605 65.1185 65.532 62.778 69.2721Z" fill="#F2B396"/>
</svg>
