<svg width="305" height="252" viewBox="0 0 305 252" fill="none" xmlns="http://www.w3.org/2000/svg">
<defs>
<linearGradient id="paint0_linear" x1="242" y1="217.997" x2="242" y2="9" gradientUnits="userSpaceOnUse">
<stop stop-color="#808080" stop-opacity="0.25"/>
<stop offset="0.54" stop-color="#808080" stop-opacity="0.12"/>
<stop offset="1" stop-color="#808080" stop-opacity="0.1"/>
</linearGradient>
<linearGradient id="paint1_linear" x1="105101" y1="154963" x2="105101" y2="37480.2" gradientUnits="userSpaceOnUse">
<stop stop-color="#808080" stop-opacity="0.25"/>
<stop offset="0.54" stop-color="#808080" stop-opacity="0.12"/>
<stop offset="1" stop-color="#808080" stop-opacity="0.1"/>
</linearGradient>
</defs>
<path opacity="0.1" d="M284.854 139.239C273.139 158.119 275.334 183.84 280.479 204.12C282.201 210.91 284.184 218.078 282.712 225.678C280.912 234.97 274.349 242.267 267.707 246.446C255.597 254.045 241.77 253.834 231.7 245.889C223.005 239.026 217.279 227.056 208.401 220.561C193.556 209.689 173.172 216.279 155.472 226.439C142.955 233.61 129.178 242.736 117.608 237.569C109.469 233.941 104.394 223.705 102.025 212.566C100.881 207.188 100.19 201.313 97.5682 197.216C96.0079 194.781 93.8634 193.151 91.6398 191.813C71.3469 179.623 43.8907 189.815 24.321 176.011C11.103 166.69 3.58907 147.439 1.11918 126.853C-1.35071 106.268 0.680156 84.2411 3.22269 62.5542C5.03247 47.1355 7.48026 30.6407 15.6037 18.1012C24.1978 4.83797 37.7444 -1.09351 49.519 0.165157C61.2936 1.42383 71.5175 8.85627 80.3295 17.9407C91.3429 29.2939 101.276 43.7938 115.53 47.4565C125.239 49.9518 135.842 47.0632 146.167 45.43C163.406 42.6987 180.404 43.4822 197.283 44.5081C213.442 45.4898 229.698 46.7107 244.754 52.3747C255.408 56.3867 263.585 64.738 273.528 70.1692C280.009 73.7092 287.32 74.1591 293.359 78.8792C300.797 84.6942 307.234 95.4275 304.256 108.996C301.417 121.904 291.069 129.22 284.854 139.239Z" fill="#6C63FF"/>
<path d="M211 97C211 97 243.411 69.9826 250.618 56.3605C257.826 42.7385 267 31 267 31" stroke="#535461" stroke-width="2"/>
<path d="M260 62.904L246 60C246 60 249.304 73.5855 260 62.904Z" fill="#6C63FF"/>
<path d="M239.873 47L247 57.9776C247 57.9776 233.067 59.0127 239.873 47Z" fill="#6C63FF"/>
<path d="M265 51.5472L254 49C254 49 260.909 62.8823 265 51.5472Z" fill="#6C63FF"/>
<path d="M246.138 40L252 47.965C252 47.965 241.623 48.9854 246.138 40Z" fill="#6C63FF"/>
<path d="M261 38C261 38 270.601 38.5311 271.731 39.5966C272.86 40.6621 270.299 46.9075 266.648 45.8879C262.996 44.8683 261 38 261 38Z" fill="#6C63FF"/>
<path d="M255.888 27C255.888 27 260.155 34.2727 259.996 35.6576C259.836 37.0426 253.492 38.5972 252.211 33.3589C250.93 28.1206 255.888 27 255.888 27Z" fill="#6C63FF"/>
<circle cx="267.5" cy="34.5" r="3.5" transform="rotate(-72.4744 267.5 34.5)" fill="#FFD037"/>
<circle cx="262.5" cy="30.5" r="3.5" transform="rotate(-72.4744 262.5 30.5)" fill="#FFD037"/>
<path d="M109.707 201.443C109.707 201.443 114.799 186.166 82.5192 167.749C82.5192 167.749 49.7429 158.108 53.0947 125C53.0947 125 15.3111 152.919 40.8781 188.482C66.4452 224.045 88.5128 216.283 88.5128 216.283L109.707 201.443Z" fill="#6C63FF"/>
<path d="M101 207C101 207 85.2771 190.108 70.2064 183.578C67.1959 182.231 64.4296 180.399 62.0189 178.157C52.4108 169.429 48.2213 156.259 50.6986 143.556L54.3205 125" stroke="#535461" stroke-width="2"/>
<path d="M62 9H242V218H62V9Z" fill="url(#paint0_linear)"/>
<path d="M62 12H238V215H62V12Z" fill="#F7F7FD"/>
<path d="M74 37H118V42H74V37Z" fill="#E2E2EC"/>
<path d="M74 44H150V49H74V44Z" fill="#E2E2EC"/>
<path d="M199 32H231V59H199V32Z" fill="white"/>
<path fill-rule="evenodd" clip-rule="evenodd" d="M230.111 58.129V32H231V59H199V58.129H230.111Z" fill="#E2E2EC"/>
<path d="M168 32H200V59H168V32Z" fill="white"/>
<path fill-rule="evenodd" clip-rule="evenodd" d="M198.111 58.129V32H199V59H167V58.129H198.111Z" fill="#E2E2EC"/>
<path d="M199 60H231V87H199V60Z" fill="white"/>
<path fill-rule="evenodd" clip-rule="evenodd" d="M230.111 86.129V60H231V87H199V86.129H230.111Z" fill="#E2E2EC"/>
<path d="M168 60H200V87H168V60Z" fill="white"/>
<path fill-rule="evenodd" clip-rule="evenodd" d="M198.111 86.129V60H199V87H167V86.129H198.111Z" fill="#E2E2EC"/>
<path d="M135 60H167V87H135V60Z" fill="white"/>
<path fill-rule="evenodd" clip-rule="evenodd" d="M166.111 86.129V60H167V87H135V86.129H166.111Z" fill="#E2E2EC"/>
<path d="M104 60H136V87H104V60Z" fill="white"/>
<path fill-rule="evenodd" clip-rule="evenodd" d="M134.111 86.129V60H135V87H103V86.129H134.111Z" fill="#E2E2EC"/>
<path d="M72 60H104V87H72V60Z" fill="white"/>
<path fill-rule="evenodd" clip-rule="evenodd" d="M103.111 86.129V60H104V87H72V86.129H103.111Z" fill="#E2E2EC"/>
<path d="M199 88H231V115H199V88Z" fill="white"/>
<path fill-rule="evenodd" clip-rule="evenodd" d="M230.111 114.129V88H231V115H199V114.129H230.111Z" fill="#E2E2EC"/>
<path d="M168 88H200V115H168V88Z" fill="white"/>
<path fill-rule="evenodd" clip-rule="evenodd" d="M198.111 114.129V88H199V115H167V114.129H198.111Z" fill="#E2E2EC"/>
<path d="M135 88H167V115H135V88Z" fill="white"/>
<path fill-rule="evenodd" clip-rule="evenodd" d="M166.111 114.129V88H167V115H135V114.129H166.111Z" fill="#E2E2EC"/>
<path d="M104 88H136V115H104V88Z" fill="white"/>
<path fill-rule="evenodd" clip-rule="evenodd" d="M134.111 114.129V88H135V115H103V114.129H134.111Z" fill="#E2E2EC"/>
<path d="M72 88H104V115H72V88Z" fill="white"/>
<path fill-rule="evenodd" clip-rule="evenodd" d="M103.111 114.129V88H104V115H72V114.129H103.111Z" fill="#E2E2EC"/>
<path d="M199 116H231V143H199V116Z" fill="white"/>
<path fill-rule="evenodd" clip-rule="evenodd" d="M230.111 142.129V116H231V143H199V142.129H230.111Z" fill="#E2E2EC"/>
<path d="M168 116H200V143H168V116Z" fill="white"/>
<path fill-rule="evenodd" clip-rule="evenodd" d="M198.111 142.129V116H199V143H167V142.129H198.111Z" fill="#E2E2EC"/>
<path d="M135 116H167V143H135V116Z" fill="white"/>
<path fill-rule="evenodd" clip-rule="evenodd" d="M166.111 142.129V116H167V143H135V142.129H166.111Z" fill="#E2E2EC"/>
<path d="M104 116H136V143H104V116Z" fill="white"/>
<path fill-rule="evenodd" clip-rule="evenodd" d="M134.111 142.129V116H135V143H103V142.129H134.111Z" fill="#E2E2EC"/>
<path d="M72 116H104V143H72V116Z" fill="white"/>
<path fill-rule="evenodd" clip-rule="evenodd" d="M103.111 142.129V116H104V143H72V142.129H103.111Z" fill="#E2E2EC"/>
<path d="M199 141H231V168H199V141Z" fill="white"/>
<path fill-rule="evenodd" clip-rule="evenodd" d="M230.111 167.129V141H231V168H199V167.129H230.111Z" fill="#E2E2EC"/>
<path d="M168 141H200V168H168V141Z" fill="white"/>
<path fill-rule="evenodd" clip-rule="evenodd" d="M198.111 167.129V141H199V168H167V167.129H198.111Z" fill="#E2E2EC"/>
<path d="M135 141H167V168H135V141Z" fill="white"/>
<path fill-rule="evenodd" clip-rule="evenodd" d="M166.111 167.129V141H167V168H135V167.129H166.111Z" fill="#E2E2EC"/>
<path d="M104 141H136V168H104V141Z" fill="white"/>
<path fill-rule="evenodd" clip-rule="evenodd" d="M134.111 167.129V141H135V168H103V167.129H134.111Z" fill="#E2E2EC"/>
<path d="M72 141H104V168H72V141Z" fill="white"/>
<path fill-rule="evenodd" clip-rule="evenodd" d="M103.111 167.129V141H104V168H72V167.129H103.111Z" fill="#E2E2EC"/>
<path d="M199 170H231V197H199V170Z" fill="white"/>
<path fill-rule="evenodd" clip-rule="evenodd" d="M230.111 196.129V170H231V197H199V196.129H230.111Z" fill="#E2E2EC"/>
<path d="M168 170H200V197H168V170Z" fill="white"/>
<path fill-rule="evenodd" clip-rule="evenodd" d="M198.111 196.129V170H199V197H167V196.129H198.111Z" fill="#E2E2EC"/>
<path d="M135 170H167V197H135V170Z" fill="white"/>
<path fill-rule="evenodd" clip-rule="evenodd" d="M166.111 196.129V170H167V197H135V196.129H166.111Z" fill="#E2E2EC"/>
<path d="M104 170H136V197H104V170Z" fill="white"/>
<path fill-rule="evenodd" clip-rule="evenodd" d="M134.111 196.129V170H135V197H103V196.129H134.111Z" fill="#E2E2EC"/>
<path d="M72 170H104V197H72V170Z" fill="white"/>
<path fill-rule="evenodd" clip-rule="evenodd" d="M103.111 196.129V170H104V197H72V196.129H103.111Z" fill="#E2E2EC"/>
<path d="M137.882 220.73C138.801 220.149 139.665 219.464 139.932 218.629C140.216 217.711 139.586 216.769 138.499 216.487C137.185 216.145 135.781 216.755 134.714 217.39C133.648 218.024 132.43 218.728 131.036 218.597C132.478 217.727 133.166 216.316 132.767 215.034C132.699 214.758 132.531 214.506 132.285 214.311C131.556 213.776 130.232 214.009 129.359 214.426C126.579 215.765 125.805 218.321 125.789 220.631C125.51 219.799 125.744 218.931 125.738 218.075C125.731 217.218 125.387 216.273 124.327 215.813C123.649 215.568 122.914 215.45 122.175 215.468C120.925 215.436 119.534 215.521 118.682 216.142C117.622 216.913 117.898 218.209 118.82 219.057C119.743 219.906 121.147 220.438 122.435 221.025C123.418 221.472 124.414 221.994 125.005 222.7C125.083 222.794 125.147 222.894 125.198 223H133.028C134.752 222.414 136.383 221.651 137.882 220.73Z" fill="#6C63FF"/>
<circle cx="76.5" cy="64.5" r="2.5" fill="#FC6681"/>
<circle cx="80.5" cy="64.5" r="2.5" fill="#FFD037"/>
<circle cx="139.5" cy="90.5" r="2.5" fill="#6C63FF"/>
<circle cx="145.5" cy="90.5" r="2.5" fill="#6C63FF"/>
<circle cx="235.5" cy="143.5" r="2.5" fill="#6C63FF"/>
<circle cx="236.5" cy="140.5" r="2.5" fill="#6C63FF"/>
<circle cx="239.5" cy="137.5" r="2.5" fill="#6C63FF"/>
<circle cx="204.5" cy="64.5" r="2.5" fill="#6C63FF"/>
<circle cx="208.5" cy="64.5" r="2.5" fill="#6C63FF"/>
<circle cx="213.5" cy="64.5" r="2.5" fill="#6C63FF"/>
<circle cx="217.5" cy="64.5" r="2.5" fill="#6C63FF"/>
<circle cx="204.5" cy="119.5" r="2.5" fill="#6C63FF"/>
<circle cx="208.5" cy="119.5" r="2.5" fill="#6C63FF"/>
<circle cx="213.5" cy="119.5" r="2.5" fill="#6C63FF"/>
<circle cx="217.5" cy="119.5" r="2.5" fill="#6C63FF"/>
<circle cx="108.5" cy="90.5" r="2.5" fill="#FFD037"/>
<circle cx="76.5" cy="119.5" r="2.5" fill="#FC6681"/>
<path fill-rule="evenodd" clip-rule="evenodd" d="M243.065 143.909C239.149 146.397 236.056 145.644 234.074 144.486C233.473 144.144 233.076 143.534 233.01 142.85C232.944 142.166 233.216 141.493 233.741 141.044C234.867 140.003 235.846 138.815 236.649 137.514C238.349 134.869 241.201 133.438 243.151 132.729V131.869L243.031 131.847L243.084 131.047H243.031L243.17 128.935V128.916L243.865 118.363C243.865 118.363 246.367 111.347 241.92 104.87C237.474 98.3935 241.641 92.1836 245.809 89.7549C245.809 89.7549 247.756 79.497 246.088 77.0683C248.347 75.7694 250.676 74.5941 253.065 73.5475C253.101 73.4199 253.135 73.2902 253.167 73.1584C253.201 72.428 253.244 71.6902 253.286 70.9632C253.299 70.7377 253.313 70.5133 253.325 70.2904C253.27 69.794 253.179 69.3022 253.053 68.8187C253.002 68.6179 252.942 68.4139 252.875 68.2068C248.797 66.6413 246.102 62.7664 246.082 58.4385C246.079 57.2082 246.298 55.9873 246.729 54.833C246.517 54.4723 246.356 54.0849 246.25 53.6814C245.98 52.5863 246.275 51.4221 246.909 50.3144C248.013 47.9045 250.791 45.6578 252.808 44.8419C255.698 43.6809 260.046 43.9476 263.052 44.3085C264.74 44.5093 266.668 45.071 267.277 46.6149C267.411 46.9512 267.467 47.3088 267.524 47.6669C267.563 47.9101 267.601 48.1536 267.664 48.3909C268.076 49.9389 269.394 50.9441 270.728 51.9609C271.427 52.4941 272.13 53.0305 272.71 53.65C274.197 55.241 274.854 57.3936 275.336 59.4928C276.719 65.5095 277.048 71.7164 276.309 77.8433C276.141 79.2523 275.916 80.6549 275.675 82.0576C276.687 83.4696 277.603 85.9705 277.185 90.3134L280.518 105.968L281.907 115.147C281.907 115.147 282.741 118.928 279.408 122.166C277.28 124.231 274.701 127.724 273.116 129.983C273.814 131.98 274.164 134.08 274.15 136.193C274.115 137.156 274.061 138.085 273.994 138.97C273.853 140.848 273.495 142.704 272.929 144.502C272.538 148.271 271.768 153.09 270.261 156.166L269.697 172.63C269.697 172.63 270.531 187.746 272.196 190.714C273.861 193.682 268.584 218.786 268.584 218.786V222.291L269.475 224.886L269.697 224.72C273.864 229.856 269.697 231.739 269.697 231.739C269.697 231.739 268.565 231.792 266.75 231.861C267.071 233.339 266.34 234.844 264.974 235.52C264.974 235.52 241.362 236.6 237.195 235.52C233.027 234.441 234.141 230.663 236.361 230.933C237.208 231.036 238.463 230.813 239.688 230.5C238.391 228.997 239.428 226.954 241.083 227.155C243.303 227.424 248.302 225.463 248.302 225.463L248.324 225.495C248.484 225.434 248.648 225.385 248.815 225.347C250.673 224.93 252.507 224.419 254.312 223.816C255.384 221.541 257.854 215.431 256.081 210.69C255.279 208.547 255.019 205.698 255.019 202.933C254.977 194.59 253.745 186.294 251.359 178.291L248.029 166.963C248.029 166.963 243.306 153.185 243.027 149.419L243.065 143.909ZM267.526 116.885C267.526 116.886 267.527 116.888 267.527 116.889L267.523 116.886C267.524 116.885 267.525 116.885 267.526 116.885ZM267.526 116.885C269.169 116.399 271.631 115.255 271.014 112.867C270.91 112.47 270.823 112.035 270.751 111.578C270.034 111.576 269.319 111.568 268.605 111.556C267.717 113.209 267.345 115.052 267.526 116.885Z" fill="url(#paint1_linear)"/>
<path d="M267.898 222.849L269 225.639L265.402 228.674L253.547 231L245 230.302L245.553 227.744C245.886 226.623 246.934 225.753 248.268 225.49C251.781 224.794 258.48 223.205 259.887 221L267.898 222.849Z" fill="#DB8B8B"/>
<path opacity="0.1" d="M267.898 222.849L269 225.639L265.402 228.674L253.547 231L245 230.302L245.553 227.744C245.886 226.623 246.934 225.753 248.268 225.49C251.781 224.794 258.48 223.205 259.887 221L267.898 222.849Z" fill="black"/>
<path d="M248.075 230.043L249.72 228.026L248.075 225.688C248.075 225.688 243.144 227.52 240.952 227.268C238.761 227.017 237.666 230.56 241.775 231.557C245.884 232.554 269.174 231.557 269.174 231.557C269.174 231.557 273.283 229.791 269.174 225L265.598 227.523C265.598 227.523 259.57 230.549 256.557 230.046L248.075 230.043Z" fill="#2E3037"/>
<path d="M243 234.302L251.547 235L263.402 232.676L267 229.643L266.709 228.904L266.297 227.867L265.885 226.858L257.89 225C257.482 225.562 256.921 226.034 256.254 226.379C253.657 227.876 248.993 228.956 246.255 229.497C246.144 229.52 246.035 229.548 245.928 229.582C244.749 229.916 243.854 230.733 243.553 231.749L243 234.302Z" fill="#DB8B8B"/>
<path opacity="0.1" d="M243 234.199L251.547 235L263.402 232.331L267 228.848L266.709 228L263.418 230.45C263.418 230.45 257.354 233.651 254.321 233.119H245.758L247.413 230.986L245.928 228.769C244.749 229.152 243.854 230.091 243.553 231.258L243 234.199Z" fill="black"/>
<path d="M246.075 235.043L247.72 233.026L246.075 230.688C246.075 230.688 241.144 232.52 238.952 232.268C236.761 232.017 235.666 235.56 239.775 236.557C243.884 237.554 267.174 236.557 267.174 236.557C267.174 236.557 271.283 234.791 267.174 230L263.598 232.523C263.598 232.523 257.57 235.549 254.557 235.046L246.075 235.043Z" fill="#2E3037"/>
<path d="M250 79.855C250 79.855 262 81.1611 260.25 75.9337C259.761 74.4512 259.633 72.8644 259.879 71.3174C260.191 69.3994 260.916 67.5808 262 66L250.75 67.8304C251.424 69.0094 251.938 70.2813 252.275 71.609C253.615 77.1529 250 79.855 250 79.855Z" fill="#DB8B8B"/>
<path d="M271 141C271 141 270.742 152.266 268.158 157.768L267.64 173.75C267.64 173.75 268.416 188.423 269.967 191.305C271.518 194.187 266.595 218.553 266.595 218.553V222.747C266.595 222.747 258.318 225.89 256 222.221L258.327 191.041L257.294 147.811L271 141Z" fill="#474463"/>
<path opacity="0.1" d="M271 141C271 141 270.742 152.266 268.158 157.768L267.64 173.75C267.64 173.75 268.416 188.423 269.967 191.305C271.518 194.187 266.595 218.553 266.595 218.553V222.747C266.595 222.747 258.318 225.89 256 222.221L258.327 191.041L257.294 147.811L271 141Z" fill="black"/>
<path d="M276.989 106L278.589 110.391L279.92 119.72C280.285 122.356 279.391 125.012 277.52 126.851C274.324 130.142 270.059 137 270.059 137L265 121.376C265 121.376 270.059 120.553 269.265 116.985C268.471 113.418 268.728 106.81 268.728 106.81L276.989 106Z" fill="#F95F5F"/>
<path opacity="0.05" d="M301.989 122L303.589 126.391L304.92 135.72C305.285 138.356 304.391 141.012 302.52 142.851C299.324 146.142 295.059 153 295.059 153L290 137.376C290 137.376 295.059 136.553 294.265 132.985C293.471 129.418 293.728 122.81 293.728 122.81L301.989 122Z" fill="black"/>
<path opacity="0.1" d="M255 227.016C258.177 233.856 263.124 229.981 264 229.209L263.641 227.712L256.458 225C256.095 225.82 255.595 226.51 255 227.016H255Z" fill="black"/>
<path d="M243 152.433C243.249 156.144 247.499 169.661 247.499 169.661L250.498 180.785C252.647 188.65 253.755 196.794 253.793 204.982C253.793 207.696 254.027 210.495 254.751 212.599C256.75 218.43 252.752 226.383 252.752 226.383C256.252 233.01 262.243 228.503 262.243 228.503V224.264C262.243 224.264 266.988 201.202 265.743 196.698C264.497 192.195 263.993 179.999 263.993 179.999V157.984C267.997 153.753 270.432 148.136 270.853 142.159C270.912 141.291 270.96 140.379 270.992 139.432C271.194 133.457 267.338 126.441 265.832 123.943C265.47 123.34 265.238 123 265.238 123L243.166 132.284L243.116 132.306V133.212V135.215L243 152.433Z" fill="#474463"/>
<path opacity="0.1" d="M252 68.0395C252.659 69.3555 253.161 70.775 253.491 72.2569C255.905 73.3504 258.586 73.233 260.926 71.9314C261.231 69.7919 261.94 67.7634 263 66L252 68.0395Z" fill="black"/>
<circle cx="256" cy="63" r="11" fill="#DB8B8B"/>
<path opacity="0.1" d="M243 133.718L243.117 133.737C254.592 135.747 269 125.563 269 125.563C268.614 125.008 268.281 124.429 268.003 123.829C267.607 123.299 267.354 123 267.354 123L243.188 131.161L243.127 131.976L243 133.718Z" fill="black"/>
<path d="M245.697 81.2468C245.697 81.2468 260.286 72.1633 264.975 75.9032L271.487 84.4605C271.487 84.4605 275.657 85.7948 274.887 94.3426L278 109.831L268.622 112.237C268.622 112.237 263.151 117.581 267.58 125.326C267.58 125.326 253.773 137.079 242.831 134.676L243.613 122.122C243.613 122.122 245.959 115.178 241.79 108.766C237.62 102.355 241.53 96.2126 245.437 93.807C245.437 93.8038 247.258 83.6523 245.697 81.2468Z" fill="#E54E4E"/>
<path d="M245.356 135C245.356 135 239.945 135.966 237.368 139.83C236.624 140.99 235.717 142.05 234.671 142.982C234.194 143.387 233.949 143.98 234.009 144.581C234.069 145.182 234.428 145.721 234.977 146.036C237.022 147.182 240.358 147.896 244.571 144.652C251.798 139.106 245.356 135 245.356 135Z" fill="#DB8B8B"/>
<path opacity="0.1" d="M252.832 84.2015C252.832 84.2015 258.036 83.6633 259.336 97.6209C260.636 111.578 262.732 114.798 262.732 114.798C262.732 114.798 264.031 122.046 260.91 126.338C257.789 130.631 251.804 139.758 251.804 139.758C251.804 139.758 245.3 141.637 244 134.927L252.066 119.361C252.066 119.361 253.366 113.992 250.245 110.235C247.124 106.477 244.766 81.517 252.832 84.2015Z" fill="black"/>
<path d="M252.832 84.2015C252.832 84.2015 258.036 83.6633 259.336 97.6209C260.636 111.578 262.732 114.798 262.732 114.798C262.732 114.798 264.031 122.046 260.91 126.338C257.789 130.631 251.804 139.758 251.804 139.758C251.804 139.758 245.3 141.637 244 134.927L252.066 119.361C252.066 119.361 253.366 113.992 250.245 110.235C247.124 106.477 244.775 81.517 252.832 84.2015Z" fill="#F95F5F"/>
<path opacity="0.1" d="M249.068 95C249.068 95 248.351 103.444 251.576 108.089C254.801 112.735 254.814 118.723 251.576 122" fill="black"/>
<path opacity="0.1" d="M246 87C246 87 248.249 84.6483 254.72 84.3517C261.19 84.0551 264 82 264 82" fill="black"/>
<path opacity="0.1" d="M260.613 49.3077C262.202 49.5076 264.027 50.066 264.591 51.5922C264.802 52.1538 264.809 52.7725 264.954 53.3531C265.547 55.6883 268.119 56.7766 269.705 58.5629C271.104 60.1493 271.722 62.272 272.187 64.3502C273.493 70.3097 273.808 76.4515 273.118 82.5179C272.609 86.9599 271.567 91.3194 271.275 95.7741C270.983 100.229 271.517 104.915 273.897 108.659C274.921 110.268 276.274 111.683 277 113.453C275.501 114.697 273.432 114.875 271.498 114.941C269.25 115.02 267 115.02 264.75 114.941C263.57 114.9 262.339 114.821 261.321 114.212C260.567 113.719 259.948 113.039 259.521 112.235C258.233 110.014 257.911 107.317 257.97 104.728C258.029 102.139 258.426 99.5625 258.472 96.9703C258.497 95.5584 258.389 94.0576 257.594 92.9027C257.02 92.0682 256.148 91.5066 255.404 90.8308C252.611 88.2925 251.643 84.2249 251.55 80.4017C251.457 76.5784 252.074 72.7487 251.758 68.9381C251.633 67.4469 251.087 65.6542 249.654 65.3655C249.201 65.2735 248.723 65.3655 248.288 65.1878C247.137 64.7341 247.249 63.0747 246.92 61.8595C246.551 60.4952 245.412 59.4418 245.092 58.0521C244.338 54.8158 248.366 50.9544 251.007 49.8281C253.691 48.6795 257.783 48.9524 260.613 49.3077Z" fill="black"/>
<path d="M260.613 49.3101C262.202 49.51 264.027 50.0684 264.591 51.5944C264.802 52.156 264.809 52.7747 264.954 53.3553C265.547 55.6904 268.119 56.7787 269.705 58.5649C271.104 60.1513 271.722 62.2739 272.187 64.352C273.493 70.3113 273.808 76.4529 273.118 82.5191C272.609 86.9609 271.567 91.3203 271.275 95.7748C270.983 100.229 271.517 104.915 273.897 108.659C274.921 110.268 276.274 111.683 277 113.453C275.501 114.697 273.432 114.875 271.498 114.941C269.25 115.02 267 115.02 264.75 114.941C263.57 114.9 262.339 114.821 261.321 114.212C260.567 113.719 259.948 113.039 259.521 112.235C258.233 110.014 257.911 107.317 257.97 104.728C258.029 102.139 258.426 99.563 258.472 96.9709C258.497 95.5591 258.389 94.0583 257.594 92.9035C257.02 92.069 256.148 91.5075 255.404 90.8317C252.611 88.2935 251.643 84.226 251.55 80.4029C251.457 76.5797 252.074 72.7502 251.758 68.9398C251.633 67.4486 251.087 65.656 249.654 65.3673C249.201 65.2753 248.723 65.3673 248.288 65.1896C247.137 64.7359 247.249 63.0766 246.92 61.8614C246.551 60.4971 245.412 59.4438 245.092 58.0541C244.338 54.8179 248.366 50.9567 251.007 49.8304C253.691 48.6787 257.783 48.9515 260.613 49.3101Z" fill="#472727"/>

</svg>
