<svg width="282" height="231" viewBox="0 0 282 231" fill="none" xmlns="http://www.w3.org/2000/svg">
<defs>
<linearGradient id="paint0_linear" x1="140.999" y1="87" x2="140.999" y2="37" gradientUnits="userSpaceOnUse">
<stop stop-color="#808080" stop-opacity="0.25"/>
<stop offset="0.54" stop-color="#808080" stop-opacity="0.12"/>
<stop offset="1" stop-color="#808080" stop-opacity="0.1"/>
</linearGradient>
<linearGradient id="paint1_linear" x1="55148.9" y1="26025" x2="55148.9" y2="18003.5" gradientUnits="userSpaceOnUse">
<stop stop-color="#808080" stop-opacity="0.25"/>
<stop offset="0.54" stop-color="#808080" stop-opacity="0.12"/>
<stop offset="1" stop-color="#808080" stop-opacity="0.1"/>
</linearGradient>
<linearGradient id="paint2_linear" x1="193.805" y1="398.426" x2="193.805" y2="398.246" gradientUnits="userSpaceOnUse">
<stop stop-color="#808080" stop-opacity="0.25"/>
<stop offset="0.54" stop-color="#808080" stop-opacity="0.12"/>
<stop offset="1" stop-color="#808080" stop-opacity="0.1"/>
</linearGradient>
<linearGradient id="paint3_linear" x1="30206" y1="141782" x2="30206" y2="41603.2" gradientUnits="userSpaceOnUse">
<stop stop-color="#808080" stop-opacity="0.25"/>
<stop offset="0.54" stop-color="#808080" stop-opacity="0.12"/>
<stop offset="1" stop-color="#808080" stop-opacity="0.1"/>
</linearGradient>
<linearGradient id="paint4_linear" x1="63185.3" y1="136055" x2="63185.3" y2="43012.2" gradientUnits="userSpaceOnUse">
<stop stop-color="#808080" stop-opacity="0.25"/>
<stop offset="0.54" stop-color="#808080" stop-opacity="0.12"/>
<stop offset="1" stop-color="#808080" stop-opacity="0.1"/>
</linearGradient>
</defs>
<ellipse opacity="0.1" cx="48.5" cy="223" rx="48.5" ry="8" fill="#6C63FF"/>
<ellipse opacity="0.1" cx="233.5" cy="220" rx="48.5" ry="8" fill="#6C63FF"/>
<path opacity="0.1" d="M75.1757 0.122456C62.5008 0.802022 49.6937 4.51478 39.8046 12.4955C31.1278 19.5012 24.8703 30.5151 26.3968 41.5816C28.1989 54.6453 39.8239 64.1481 44.1361 76.6096C46.9108 84.6208 46.4782 93.4607 44.6624 101.748C43.4941 107.088 41.6976 112.433 38.245 116.665C32.0261 124.279 20.8034 127.953 17.7476 137.304C14.4246 147.472 22.7983 157.445 30.6649 164.677C36.9445 170.448 43.5216 176.191 51.4352 179.354C57.2215 181.669 63.5011 182.501 69.7255 182.832C86.9136 183.736 104.098 180.983 120.149 174.755C127.84 171.763 135.279 167.97 143.328 166.166C160.48 162.321 178.129 167.865 195.512 170.462C210.414 172.681 225.558 172.726 240.472 170.594C249.857 169.252 259.553 166.829 266.621 160.497C273.785 154.069 277.367 144.119 276.97 134.478C276.573 124.837 272.518 115.555 266.544 107.986C258.829 98.2094 248.187 91.2535 238.929 82.9219C229.502 74.4337 221.483 64.4952 215.172 53.4795C211.535 47.1258 208.441 40.3826 203.729 34.7887C196.38 26.0703 185.722 20.8852 175.073 16.8796C150.506 7.65294 125.024 5.77446 99.4094 1.69706C91.405 0.41804 83.2848 -0.302964 75.1757 0.122456Z" fill="#6C63FF"/>
<g opacity="0.7">
<path d="M71.1479 101.486H123.478V130.95H71.1479V101.486Z" fill="#F6F7F9"/>
<g opacity="0.2">
<ellipse cx="80.9996" cy="114.565" rx="5.44788" ry="5.48925" fill="#6C63FF"/>
</g>
<g opacity="0.2">
<path d="M93.0902 108.06H116.827V109.565H93.0902V108.06Z" fill="#6C63FF"/>
</g>
<g opacity="0.2">
<path d="M93.0902 111.895H105.184V113.4H93.0902V111.895Z" fill="#6C63FF"/>
</g>
<g opacity="0.2">
<path d="M93.0902 115.731H112.648V117.235H93.0902V115.731Z" fill="#6C63FF"/>
</g>
<g opacity="0.2">
<path d="M93.0902 119.566H116.827V121.071H93.0902V119.566Z" fill="#6C63FF"/>
</g>
<g opacity="0.2">
<path d="M110.261 125.102H116.83V128.01H110.261V125.102Z" fill="#6C63FF"/>
</g>
<path d="M115.205 20.0552H167.536V49.5199H115.205V20.0552Z" fill="#F6F7F9"/>
<g opacity="0.2">
<ellipse cx="125.06" cy="33.135" rx="5.44788" ry="5.48925" fill="#6C63FF"/>
</g>
<g opacity="0.2">
<rect x="137.15" y="26.6296" width="23.7372" height="1.50485" fill="#6C63FF"/>
</g>
<g opacity="0.2">
<path d="M137.15 30.4649H149.243V31.9698H137.15V30.4649Z" fill="#6C63FF"/>
</g>
<g opacity="0.2">
<path d="M137.15 34.3002H156.708V35.8051H137.15V34.3002Z" fill="#6C63FF"/>
</g>
<g opacity="0.2">
<path d="M137.15 38.1383H160.887V39.6431H137.15V38.1383Z" fill="#6C63FF"/>
</g>
<g opacity="0.2">
<path d="M154.319 43.6717H160.887V46.5793H154.319V43.6717Z" fill="#6C63FF"/>
</g>
<path d="M132.623 69.5248H184.953V98.9895H132.623V69.5248Z" fill="#F6F7F9"/>
<g opacity="0.2">
<ellipse cx="142.475" cy="82.6073" rx="5.44788" ry="5.48925" fill="#6C63FF"/>
</g>
<g opacity="0.2">
<path d="M154.568 76.102H178.305V77.6068H154.568V76.102Z" fill="#6C63FF"/>
</g>
<g opacity="0.2">
<path d="M154.568 79.9372H166.661V81.4421H154.568V79.9372Z" fill="#6C63FF"/>
</g>
<g opacity="0.2">
<path d="M154.568 83.7725H174.126V85.2774H154.568V83.7725Z" fill="#6C63FF"/>
</g>
<g opacity="0.2">
<path d="M154.568 87.6078H178.305V89.1127H154.568V87.6078Z" fill="#6C63FF"/>
</g>
<g opacity="0.2">
<path d="M171.737 93.144H178.305V96.0515H171.737V93.144Z" fill="#6C63FF"/>
</g>
</g>
<path d="M53 37H141V87H53V37Z" fill="url(#paint0_linear)"/>
<path d="M53 38H140V87H53V38Z" fill="#F6F7F9"/>
<g opacity="0.2">
<circle cx="70.5709" cy="60.5028" r="9.34687" fill="#6C63FF"/>
</g>
<g opacity="0.2">
<path d="M90.2538 49.132H129.873V51.841H90.2538V49.132Z" fill="#6C63FF"/>
</g>
<g opacity="0.2">
<path d="M90.2576 55.144H110.742V57.853H90.2576V55.144Z" fill="#6C63FF"/>
</g>
<g opacity="0.2">
<path d="M90.2531 62.153H122.794V64.862H90.2531V62.153Z" fill="#6C63FF"/>
</g>
<g opacity="0.2">
<path d="M90.2538 68.162H129.873V70.871H90.2538V68.162Z" fill="#6C63FF"/>
</g>
<path d="M119 77H130V81H119V77Z" fill="#6C63FF"/>
<path d="M115 105H199V152H115V105Z" fill="url(#paint1_linear)"/>
<path d="M116 105H199V151H116V105Z" fill="#F6F7F9"/>
<g opacity="0.2">
<circle cx="130.983" cy="125.921" r="8.82" fill="#6C63FF"/>
</g>
<g opacity="0.2">
<path d="M150.149 116.165H187.771V118.742H150.149V116.165Z" fill="#6C63FF"/>
</g>
<g opacity="0.2">
<path d="M150.145 122.141H168.77V124.718H150.145V122.141Z" fill="#6C63FF"/>
</g>
<g opacity="0.2">
<path d="M150.147 128.084H180.758V129.993H150.147V128.084Z" fill="#6C63FF"/>
</g>
<g opacity="0.2">
<path d="M150.149 134.064H187.771V135.973H150.149V134.064Z" fill="#6C63FF"/>
</g>
<g opacity="0.5">
<path d="M177.092 142.253H186.787V146.867H177.092V142.253Z" fill="#6C63FF"/>
</g>
<g opacity="0.1">
<path d="M22.215 79.23L22.4 79.27C22.3459 79.2329 22.2795 79.2186 22.215 79.23Z" fill="url(#paint2_linear)"/>
</g>
<path fill-rule="evenodd" clip-rule="evenodd" d="M65.4692 110.868C64.86 106.787 61.1441 97.2644 61.1441 97.2644C61.0779 96.9893 61.0063 96.6978 60.9236 96.4172C58.2855 87.3707 54.6357 86.5703 54.6357 86.5703L41.5611 83.7895C41.669 83.857 41.7627 83.9448 41.8368 84.0481L41.63 84.0811C41.03 83.3749 40.6336 82.5192 40.4833 81.6056C40.4585 81.4708 40.4364 81.3306 40.4199 81.1875C42.321 79.3402 43.3293 76.7632 43.1856 74.1193C43.042 71.4753 41.7603 69.0223 39.6701 67.3909C39.535 67.2836 39.3944 67.1819 39.2511 67.0801C39.8686 66.4282 39.8879 65.5178 39.4275 64.6046C38.3965 62.4675 36.1582 61.1169 33.8536 60.4596C32.0949 59.9562 30.1873 59.7939 28.4451 60.344C27.6818 60.5846 26.972 60.9529 26.2622 61.3213L26.2622 61.3213C26.0466 61.4332 25.8311 61.545 25.6141 61.6533C25.2565 61.8317 24.8914 62.0024 24.5256 62.1735C23.115 62.833 21.6941 63.4974 20.6522 64.6266C20.3462 64.9594 20.0678 65.383 20.156 65.8203C20.2024 66.0407 20.3338 66.2262 20.466 66.4128L20.466 66.4128C20.5302 66.5034 20.5945 66.5943 20.6494 66.6895C21.0216 67.3386 20.9251 68.1555 20.6743 68.8624C20.5745 69.1436 20.4542 69.4186 20.3343 69.693L20.3343 69.693C20.1526 70.1084 19.9717 70.5221 19.8638 70.9528C19.6846 71.668 19.7563 72.5316 20.3021 73.0487C20.5673 73.2558 20.8433 73.4486 21.1291 73.6263C21.4286 73.8793 21.6912 74.1728 21.9092 74.4983L23.4584 76.5859C24.1816 77.5114 24.827 78.4948 25.3881 79.5262C25.4956 79.7384 25.5965 79.955 25.6976 80.1716C25.9567 80.7273 26.2163 81.2838 26.5872 81.7706C26.7388 81.9719 26.9117 82.1563 27.1027 82.3208C27.0845 82.3137 27.066 82.307 27.0474 82.3003C27.0151 82.2887 26.9825 82.277 26.9511 82.263C27.4124 82.7118 28.0384 82.9515 28.6822 82.9259H28.7594C28.8776 82.924 28.9907 82.8778 29.0764 82.7966V83.0716C29.104 84.0756 29.1012 85.1428 29.0296 86.144L28.9083 86.0835C28.5416 85.8998 28.1012 85.9459 27.7808 86.2017L15.7372 95.8286C15.7372 95.8286 13.1211 99.4043 13.485 105.565L11.3762 114.813C11.3762 114.813 8.73812 122.66 10.767 128.263C12.7959 133.866 13.9729 137.064 13.9729 137.064C13.9729 137.064 14.7834 143.429 16.0018 143.941C17.2202 144.452 17.7467 144.744 17.7467 144.744L17.9893 146.265C17.9893 146.265 18.0693 146.411 18.2126 146.664C19.1002 148.201 22.3834 153.631 24.2937 153.053C24.5323 154.527 24.6366 156.019 24.6052 157.512L26.4907 170.164C26.4907 170.164 27.8084 173.605 27.7284 175.407C27.6485 177.208 29.2694 179.772 29.2694 179.772C28.2854 181.568 27.9969 183.661 28.4589 185.655C29.2308 189.019 30.2039 204.549 30.2039 204.549L31.6235 208.311L31.5822 212.712C31.4646 213.427 31.1646 214.1 30.7111 214.665C30.4056 214.996 30.2088 215.343 30.0013 215.71C29.587 216.442 29.1296 217.25 27.6788 218.15C27.3461 218.356 27.0314 218.543 26.7369 218.718L26.7364 218.718C25.1041 219.686 24.0952 220.285 24.0952 221.811C24.0927 222.06 24.0706 222.308 24.0291 222.554C24.0163 222.636 24.0028 222.716 23.9896 222.794C23.7931 223.959 23.6841 224.605 27.4748 224.966C32.2217 225.414 35.3863 222.323 35.3863 222.323C35.3863 222.323 36.0837 221.06 39.3724 220.551C39.3724 220.551 40.4943 220.491 40.5577 219.498C40.5798 219.157 40.5743 218.502 40.5439 217.781C40.4916 216.406 40.3592 214.805 40.1856 214.726C39.9678 214.629 39.5819 213.246 39.4496 212.745H40.3647C40.3647 212.745 41.2165 206.38 40.3647 202.255C39.513 198.129 40.2848 195.211 40.2848 195.211L40.1222 184.324C40.1222 184.324 38.9727 183.161 39.8741 181.043C40.7755 178.925 39.8741 168.434 39.8741 168.434C39.8741 168.434 40.2021 164.672 41.1338 163.791C42.0656 162.911 41.1807 158.277 41.1338 158.034L42.7878 163.591C42.7878 163.591 43.5183 174.639 45.062 176.642L45.5086 181.642C45.5086 181.642 48.6732 186.247 48.064 188.73C47.4548 191.214 48.7145 200.178 48.7145 200.178V209.346C48.7145 209.346 47.2921 213.029 49.2824 214.349L50.1397 214.316C49.9868 214.46 49.8566 214.633 49.7206 214.814L49.7204 214.814C49.5965 214.979 49.4678 215.15 49.3127 215.311C48.9323 215.702 48.7173 217.187 48.596 218.464C48.494 219.545 48.4609 220.474 48.4609 220.474C48.4609 220.474 49.3127 221.825 50.895 221.915C52.4773 222.006 57.7121 226 57.7121 226C57.7121 226 62.889 226 64.226 225.725L64.3059 225.706C64.7354 225.569 65.0963 225.274 65.3149 224.881C65.5846 224.425 65.6722 223.885 65.5602 223.368C65.392 222.578 64.7663 221.717 63.3742 220.978C59.9036 219.148 59.3881 217.438 59.3881 217.438L57.1139 214.038H57.4392C57.4392 214.038 57.238 210.435 59.7107 206.391L59.5508 188.579C59.5508 188.579 60.5625 182.454 58.8203 179.131C58.8203 179.131 58.6769 175.608 59.843 174.527C61.009 173.446 58.291 162.518 58.291 162.518C58.291 162.518 57.7397 156.654 57.0671 151.301C59.8044 153.892 62.6465 144.56 63.1316 142.901H63.2033C63.2033 142.901 63.1895 142.857 63.1702 142.78C63.1509 142.703 63.2033 142.662 63.2033 142.662C63.2033 142.66 63.1977 142.64 63.1881 142.603C63.0968 142.261 62.6393 140.545 63.0407 140.94C63.4845 141.377 64.5844 139.741 64.5844 139.741C64.5844 139.741 64.4217 130.813 66.3293 126.313C68.2369 121.813 65.4692 110.868 65.4692 110.868ZM57.3124 116.548L57.3262 116.524C57.6019 121.975 57.2711 133.607 57.2711 133.607C57.2711 133.607 56.8962 135.098 56.4937 136.853L56.2043 125.801L55.9286 115.393L57.3124 116.548ZM22.3778 132.485C23.7561 130.004 22.3778 112.791 22.3778 112.791C21.4048 112.15 20.5916 115.511 20.5916 115.511C20.5916 115.511 21.2394 116.392 20.2663 118.454C19.3426 120.413 19.405 122.931 19.4137 123.283C19.4142 123.301 19.4145 123.314 19.4145 123.32C19.4145 123.338 19.4444 123.465 19.4938 123.676C19.775 124.876 20.6875 128.768 20.3076 130.405C19.963 131.891 20.9279 134.694 21.3827 135.887C21.6556 134.449 21.9836 133.192 22.3778 132.485Z" fill="url(#paint3_linear)"/>
<path d="M25.7962 151.282C24.6781 156.389 20.221 148.664 19.2056 146.812L19 146.428L19.4832 144.08L22.0383 143C22.4418 143.219 22.8241 143.478 23.1795 143.773C24.5856 144.903 26.6599 147.326 25.7962 151.282Z" fill="#EFB7B9"/>
<path d="M63 143.301L62.9692 143.415C62.9692 143.449 62.944 143.489 62.93 143.539C62.454 145.128 59.6231 154.045 56.8903 151.568C53.8998 148.85 55.353 142.609 55.353 142.609H55.381L61.6728 142L62.9188 143.213L63 143.301Z" fill="#EFB7B9"/>
<path d="M60.416 189.334L60.5753 207.068C58.1146 211.096 58.3131 214.683 58.3131 214.683L50.2038 215C48.224 213.687 49.6445 210.02 49.6445 210.02V200.891C49.6445 200.891 48.3778 191.968 48.9818 189.485C49.5858 187.002 46.4371 182.431 46.4371 182.431L45.9953 177.451C44.4573 175.459 43.7303 164.456 43.7303 164.456L42.0776 158.938C42.1196 159.178 42.9781 163.816 42.0776 164.669C41.1772 165.521 40.8249 169.293 40.8249 169.293C40.8249 169.293 41.7141 179.735 40.8249 181.846C39.9356 183.956 41.0654 185.157 41.0654 185.157L41.2303 195.996C41.2303 195.996 40.4614 198.907 41.3086 203.012C42.1559 207.118 41.3086 213.455 41.3086 213.455H32.5841L32.6233 209.041L31.2111 205.294C31.2111 205.294 30.2408 189.83 29.4746 186.484C29.0141 184.499 29.3003 182.416 30.2799 180.624C30.2799 180.624 28.6664 178.072 28.7475 176.278C28.8286 174.485 27.5144 171.058 27.5144 171.058L25.6352 158.464C25.6881 156.041 25.3753 153.623 24.7068 151.291C23.6135 147.704 22 143 22 143L23.8232 143.16L33.0287 143.968C33.0287 143.968 55.3993 142.484 56.4088 143.717C56.6213 144.12 56.7649 144.554 56.8339 145.003C57.8377 149.459 59.166 163.408 59.166 163.408C59.166 163.408 61.8728 174.289 60.7096 175.365C59.5463 176.441 59.6917 179.948 59.6917 179.948C61.4254 183.236 60.416 189.334 60.416 189.334Z" fill="#444053"/>
<path d="M39.9876 220.467C39.9255 221.46 38.846 221.522 38.846 221.522C35.6885 222.032 35.0192 223.298 35.0192 223.298C35.0192 223.298 31.9777 226.394 27.4222 225.958C23.5386 225.575 23.9138 224.847 24.1135 223.543C24.1532 223.297 24.174 223.048 24.1755 222.799C24.1755 220.994 25.5249 220.48 27.6273 219.128C29.7296 217.776 29.6729 216.63 30.55 215.639C31.4271 214.648 31.5162 212.724 31.5162 212.724C32.5093 210.947 35.0246 213.001 35.0246 213.001C35.1406 213.631 38.8838 213.556 38.8838 213.556C38.8838 213.556 39.3804 215.603 39.6341 215.722C39.8014 215.802 39.9282 217.407 39.9795 218.776C40.0038 219.47 40.0065 220.128 39.9876 220.467Z" fill="#B07473"/>
<path opacity="0.1" d="M39.988 219.665C39.9259 220.623 38.8464 220.682 38.8464 220.682C35.6888 221.175 35.0195 222.395 35.0195 222.395C35.0195 222.395 31.9779 225.38 27.4222 224.959C23.5386 224.59 23.9138 223.889 24.1135 222.631C25.8488 223.059 29.1684 223.653 31.1062 222.609C33.805 221.159 35.7293 220.144 35.7293 220.144L39.9745 218C40.0042 218.704 40.0069 219.338 39.988 219.665Z" fill="black"/>
<path d="M64.7118 224.857C64.498 225.258 64.1388 225.56 63.7093 225.7C63.684 225.709 63.6579 225.715 63.6313 225.719C62.303 226 57.1733 226 57.1733 226C57.1733 226 51.974 221.941 50.4145 221.848C48.8549 221.756 48 220.388 48 220.388C48 220.388 48.0306 219.445 48.1309 218.35C48.2534 217.056 48.4679 215.543 48.8438 215.156C49.54 214.426 49.6793 213.424 51.2583 214.061C51.2583 214.061 53.4861 210.1 56.115 213.16L58.833 217.317C58.833 217.317 59.3455 219.049 62.7875 220.905C64.166 221.649 64.787 222.525 64.9513 223.325C65.0643 223.848 64.9789 224.395 64.7118 224.857Z" fill="#B07473"/>
<path opacity="0.1" d="M64.711 224.954C64.4047 225.193 64.0621 225.45 63.7085 225.725C63.6832 225.734 63.6571 225.74 63.6305 225.743C62.3022 226 57.1728 226 57.1728 226C57.1728 226 51.9738 222.286 50.4143 222.201C48.8549 222.116 48 220.865 48 220.865C48 220.865 48.0306 220.002 48.1309 219C49.7265 219.442 52.1492 220.22 52.798 221.055C53.7922 222.339 56.8136 224.114 56.8136 224.114C56.8136 224.114 62.447 223.616 64.9505 223.547C65.0649 224.027 64.9794 224.53 64.711 224.954Z" fill="black"/>
<path d="M43 86.2827L35.5905 94C35.5905 94 26.6163 93.348 28.1838 90.7344C28.9814 89.4058 29.1065 86.6251 29.037 84.1979C28.9703 81.861 28.7257 79.8721 28.7257 79.8721C28.7257 79.8721 41.313 73.6971 40.3486 79.4557C40.1439 80.5412 40.1317 81.6535 40.3125 82.7432C40.86 85.6526 43 86.2827 43 86.2827Z" fill="#EFB7B9"/>
<path opacity="0.1" d="M40.9458 79.3242C40.7354 80.3516 40.7229 81.4043 40.9087 82.4356C39.1216 84.0791 36.6828 85.0029 34.1388 85C32.3792 85 30.4968 83.7036 29.0828 82.9387C29.0143 80.7269 29 79.7183 29 79.7183C29 79.7183 41.937 73.874 40.9458 79.3242Z" fill="black"/>
<path d="M43 76.4963C43.0015 80.9289 39.9372 84.7734 35.6158 85.7605C31.2945 86.7476 26.8648 84.615 24.9415 80.6214C23.0181 76.6278 24.1124 71.8348 27.5784 69.0717C31.0444 66.3085 35.9607 66.3096 39.4255 69.0743C41.6836 70.8761 42.999 73.6075 43 76.4963Z" fill="#EFB7B9"/>
<path opacity="0.1" d="M56 144.713C53.7061 149.787 38.9493 149.892 38.9493 149.892V144.362L38.055 144.308C38.4414 145.891 37.5029 149.754 37.5029 149.754C25.8404 151.293 23 145.114 23 145.114L23.403 143L32.4901 143.752C32.4901 143.752 54.5729 142.372 55.5694 143.518C55.783 143.892 55.9285 144.296 56 144.713Z" fill="black"/>
<path d="M38.803 149.887V143.903L37.9169 143.847C38.2998 145.559 37.3699 149.737 37.3699 149.737C28.6752 150.98 24.9255 147.517 23.6044 145.714C23.3682 145.404 23.1655 145.07 23 144.716L26.5255 124.578L27.346 94.9424L28.6178 89.7437L28.9131 87.247V87.2193L28.9432 87.2332L29.8403 87.6243L35.2229 89.9823L41.3685 85.3024L41.4587 85.233L41.7623 85L42.2683 85.4133L43.5237 86.4342L47.5551 112.827C47.5551 112.827 54.5459 133.15 55.8423 141.353C55.8942 141.681 55.938 141.986 55.9708 142.272C56.8214 149.748 38.803 149.887 38.803 149.887Z" fill="#E1E7EF"/>
<circle cx="35.5" cy="91.5" r="0.5" fill="#67647E"/>
<circle cx="36.5" cy="95.5" r="0.5" fill="#67647E"/>
<circle cx="36.5" cy="103.5" r="0.5" fill="#67647E"/>
<circle cx="37.5" cy="111.5" r="0.5" fill="#67647E"/>
<circle cx="37.5" cy="119.5" r="0.5" fill="#67647E"/>
<circle cx="38.5" cy="127.5" r="0.5" fill="#67647E"/>
<circle cx="38.5" cy="135.5" r="0.5" fill="#67647E"/>
<path opacity="0.1" d="M29.1823 128.465C29.1823 128.465 28.6087 136.196 27.5589 138.443C26.5092 140.69 26.033 147 26.033 147L23.5979 146.722C23.3642 146.411 23.1637 146.076 23 145.721L26.4875 125.534L27.2992 95.8255L28.5573 90.614L28.8495 88.1112C28.859 88.1038 28.8702 88.099 28.882 88.0973C29.1588 87.9629 29.4806 87.968 29.7532 88.1112L29.8722 88.1724C29.837 88.2752 29.8019 88.3809 29.7694 88.4894C28.817 91.5623 28.4599 97.2298 28.4599 97.2298C28.4599 97.2298 29.8289 107.594 29.9831 112.416C30.1374 117.239 29.1823 128.465 29.1823 128.465Z" fill="black"/>
<path opacity="0.1" d="M23 143.811C22.9756 143.876 22.9477 143.938 22.9164 143.999C22.0529 145.657 19.8635 146.712 19.1968 147L19 146.597L19.4625 144.133L21.9077 143C22.294 143.23 22.6598 143.501 23 143.811Z" fill="black"/>
<path d="M15.8745 105L13.5327 106.367L11.3929 115.598C11.3929 115.598 8.72104 123.432 10.7783 129.025C12.8356 134.618 14.0335 137.808 14.0335 137.808C14.0335 137.808 14.8559 144.17 16.0879 144.682C17.32 145.194 17.8578 145.481 17.8578 145.481L18.1025 147C18.1025 147 21.4488 145.893 22.6325 143.957C23.8162 142.021 21.7618 137.177 21.7618 137.177C21.7618 137.177 19.9947 133.061 20.4472 131.144C20.8996 129.227 19.5423 124.189 19.5423 124.071C19.5423 123.952 19.42 121.271 20.396 119.213C21.372 117.155 20.726 116.278 20.726 116.278L20.1086 110.402L15.8745 105Z" fill="#F96060"/>
<path opacity="0.1" d="M56 142.9C56 142.9 49.8953 145.179 47.9528 143.177C46.0103 141.175 46.2146 131.84 46.2146 131.84C46.2146 131.84 44.356 114.583 43.1804 111.749C42.0049 108.915 42.6206 88.4591 42.6206 88.4591C42.6206 88.4591 41.8257 85.8185 41.1455 85.1189C41.1028 85.0729 41.0538 85.0329 41 85L41.2379 85.0498L42.0776 85.2295L43.3624 86.247L47.4882 112.554C47.4882 112.554 54.6425 132.811 55.9692 140.987L56 142.9Z" fill="black"/>
<path opacity="0.1" d="M62 143.666H61.936C61.2345 143.767 55.023 144.607 55 143.162C55.0001 142.994 55.0087 142.826 55.0256 142.66L60.7787 142L61.9181 143.314C61.9386 143.4 61.9565 143.474 61.9718 143.531L62 143.666Z" fill="black"/>
<path d="M56.1115 96L60.402 98.3016C60.402 98.3016 63.9609 107.818 64.5447 111.901C64.5447 111.901 67.1862 122.833 65.3517 127.328C63.5171 131.823 63.6812 140.75 63.6812 140.75C63.6812 140.75 62.6321 142.389 62.2043 141.949C61.7766 141.509 62.3604 143.669 62.3604 143.669C62.3604 143.669 55.0355 144.672 55.0005 143.187C54.9656 141.702 56.6818 134.623 56.6818 134.623C56.6818 134.623 57.1471 117.778 56.4854 115.138C55.8237 112.499 56.1115 96 56.1115 96Z" fill="#F96060"/>
<path opacity="0.1" d="M42.7212 114C42.7212 114 40.1414 119.735 39.3245 120.114C38.5075 120.492 39.4907 122 39.4907 122C39.4907 122 44.1716 116.038 42.7212 114Z" fill="black"/>
<path opacity="0.1" d="M41.9998 93.0037C42.0284 92.8721 38.9392 96.3221 38.1154 96.836C37.2916 97.3499 41.1188 96.8078 41.9998 93.0037Z" fill="black"/>
<path opacity="0.1" d="M34 114C34 114 29.4582 116.757 30.0539 117.844C30.6495 118.93 34 114 34 114Z" fill="black"/>
<path opacity="0.1" d="M42 156C42 156 45.9073 158.396 52 159L42 156Z" fill="black"/>
<path opacity="0.1" d="M33 162C33 162 36.2755 165.893 37.7697 165.998C39.2638 166.103 33 162 33 162Z" fill="black"/>
<path opacity="0.1" d="M37 180C36.8521 180.076 35.1211 183.882 33.3544 183.998C31.5877 184.114 37 180 37 180Z" fill="black"/>
<path opacity="0.1" d="M54 189.125C54 189.125 57.2732 188.276 58 191C58 191 57.7814 190.148 54 189.125Z" fill="black"/>
<path opacity="0.1" d="M52 203.284C52 203.284 56.0503 202.48 56.9123 203.578C57.7743 204.676 52 203.284 52 203.284Z" fill="black"/>
<path opacity="0.1" d="M40.3278 205C40.3278 205.022 35.8267 205.491 36.0052 205.802C36.1836 206.114 40.8036 206.069 40.9679 205.579C41.0319 205.456 40.9993 205.323 40.878 205.214C40.7568 205.104 40.5576 205.027 40.3278 205V205Z" fill="black"/>
<path opacity="0.1" d="M50 209.177C50 209.177 57.4468 208.563 56.9788 209.622C56.5109 210.681 50 209.177 50 209.177Z" fill="black"/>
<path opacity="0.1" d="M13 120C13.0385 120.104 17.4077 120.666 18 122C18 122 13.7051 120.104 13.0385 120.104" fill="black"/>
<path opacity="0.1" d="M20 133C20 133 15.7125 134.325 16.0153 136.333C16.3181 138.342 15.5823 135.396 20 133Z" fill="black"/>
<path opacity="0.1" d="M17 141C17 141 18.3998 139.808 19.7319 140.027C21.0639 140.246 17 141 17 141Z" fill="black"/>
<path opacity="0.1" d="M38.9889 68.9699C38.8509 69.0993 38.6967 69.2112 38.5298 69.3032C37.3932 69.9429 37.089 70.9158 36.5441 72.0635C36.0463 73.1037 35.496 74.2138 34.4865 74.7943C33.1867 75.555 31.472 75.2754 30.1196 75.942C28.8936 76.5663 28.1786 77.8499 28.3109 79.1889C28.3988 79.6936 28.5283 80.1906 28.6981 80.6752C29.0032 81.7237 29.1421 82.8113 29.1101 83.9006C29.1142 83.9336 29.1142 83.967 29.1101 84C25.9492 82.4673 23.9654 79.3159 24.0005 75.883C24.0355 72.4501 26.0831 69.3376 29.2747 67.866C32.4662 66.3945 36.242 66.822 39 68.9672L38.9889 68.9699Z" fill="black"/>
<path d="M38.6852 66.6307C37.7048 64.487 35.5757 63.1329 33.3851 62.46C31.7128 61.9567 29.8989 61.7927 28.2399 62.346C27.2943 62.6602 26.4314 63.1801 25.5472 63.6584C23.8936 64.5287 22.0743 65.2154 20.8321 66.6446C20.5436 66.9755 20.2765 67.4037 20.3619 67.843C20.4261 68.1711 20.6718 68.4213 20.8294 68.7133C21.1847 69.3639 21.0966 70.1842 20.8535 70.8932C20.6104 71.6022 20.2551 72.264 20.0841 72.9925C19.9131 73.721 19.9799 74.5746 20.4982 75.0945C20.7486 75.301 21.0089 75.494 21.2782 75.6729C21.5614 75.9291 21.8102 76.2237 22.0182 76.5487L23.4902 78.6424C24.1825 79.5716 24.799 80.5594 25.3334 81.5953C25.7021 82.3544 25.9853 83.1663 26.4741 83.8447C26.963 84.5232 27.7297 85.0681 28.5418 84.9931C28.6692 84.9975 28.7907 84.9374 28.8677 84.8318C28.8997 84.7655 28.9144 84.6917 28.9105 84.6177C28.9437 83.4908 28.8094 82.3653 28.5124 81.2811C28.3484 80.7798 28.2233 80.2656 28.1384 79.7435C28.0114 78.3585 28.7019 77.0311 29.8855 76.3847C31.1945 75.6979 32.8508 75.9871 34.1064 75.2002C35.0814 74.5857 35.6131 73.4485 36.0939 72.3724C36.6282 71.1963 36.914 70.1786 38.012 69.5169C39.1099 68.8551 39.2275 67.7568 38.6852 66.6307Z" fill="#585268"/>
<path opacity="0.1" d="M36 216C36 216 37.2723 217.805 36.9467 218.827C36.6211 219.849 36 216 36 216Z" fill="black"/>
<path opacity="0.1" d="M54 220C54 220 54.2853 218.044 55.4341 218.026C56.5829 218.008 56.6384 217.92 57.5145 218.219C58.3906 218.517 59.2112 218.984 58.9511 219.056C58.6911 219.127 57.4362 217.934 56.1738 218.542C55.3718 218.929 54.6392 219.421 54 220Z" fill="black"/>
<path opacity="0.1" d="M30.3884 94L34 91.1137C34 91.1137 28.6967 87.5462 28.0652 88.0485C27.4337 88.5507 27 93.0533 27 93.0533L30.3884 94Z" fill="black"/>
<path d="M30.3732 93L34 90.0779C34 90.0779 28.6967 86.5537 28.0652 87.0474C27.4337 87.5411 27 92.2438 27 92.2438L30.3732 93Z" fill="#E1E7EF"/>
<path opacity="0.03" d="M30.3732 93L34 90.0779C34 90.0779 28.6967 86.5537 28.0652 87.0474C27.4337 87.5411 27 92.2438 27 92.2438L30.3732 93Z" fill="black"/>
<path d="M29.8613 87.1733L29.7383 87.1121C29.3666 86.9278 28.9181 86.9736 28.5939 87.2289L16.3255 96.9026C16.3255 96.9026 13.659 100.487 14.0366 106.674L21.2695 116.637C21.2695 116.637 22.0963 113.261 23.0891 113.903C23.0891 113.903 24.4939 131.177 23.0891 133.668C21.6843 136.159 21.0635 145.477 21.0635 145.477L25.8157 146C25.8157 146 26.3107 139.694 27.4265 137.444C28.5424 135.195 29.1432 127.464 29.1432 127.464C29.1432 127.464 30.1474 116.233 29.9815 111.409C29.8155 106.585 28.3707 96.2269 28.3707 96.2269C28.3707 96.2269 28.7741 90.1541 29.8613 87.1733Z" fill="#F96060"/>
<path opacity="0.1" d="M40.8871 91L36 89.1854C36 89.1854 42.2262 82.3561 43 86.1447L40.8871 91Z" fill="black"/>
<path d="M40.8871 91L36 89.1881C36 89.1881 42.2262 82.3556 43 86.1444L40.8871 91Z" fill="#E1E7EF"/>
<path opacity="0.03" d="M40.8871 91L36 89.1881C36 89.1881 42.2262 82.3556 43 86.1444L40.8871 91Z" fill="black"/>
<path opacity="0.1" d="M41 85.008C41.1268 84.985 41.2575 85.0119 41.365 85.083L41 85.008Z" fill="black"/>
<path d="M42 85.005L55.1367 87.823C55.1367 87.823 58.7487 88.6215 61.3577 97.6393C63.9667 106.657 57.7846 117.711 57.7846 117.711L56.4203 116.559L57.1038 142.902C57.1038 142.902 51.0412 145.176 49.1157 143.179C47.1902 141.181 47.3875 131.851 47.3875 131.851C47.3875 131.851 45.5426 114.603 44.3756 111.763C43.2086 108.923 43.8199 88.4916 43.8199 88.4916C43.8199 88.4916 42.7335 84.8475 42 85.005Z" fill="#F96060"/>
<path opacity="0.1" d="M53.182 102.12C52.9861 102.29 52.7611 110.177 53.6059 116.18C54.1243 119.836 54.9244 123.452 56 127L54.7459 102.943C54.7459 102.943 53.7725 101.598 53.182 102.12Z" fill="black"/>
<path opacity="0.1" d="M52 95C52.2577 95.1964 53.3818 98.4666 52.8664 99.8085C52.351 101.15 52 95 52 95Z" fill="black"/>
<path opacity="0.1" d="M39.664 66.1103C38.9995 64.8035 37.9622 63.7214 36.6824 63C37.6326 63.675 38.4005 64.5736 38.9179 65.6158C39.4918 66.7736 39.3311 67.9342 38.1918 68.5917C37.0526 69.2492 36.6967 70.307 36.1343 71.5277C35.6177 72.634 35.0438 73.8147 33.9963 74.4322C32.6476 75.244 30.8712 74.9467 29.4651 75.65C28.1931 76.3156 27.4514 77.6814 27.5883 79.1062C27.6781 79.6433 27.8125 80.1721 27.99 80.6871C28.3085 81.8019 28.4518 82.9591 28.4148 84.1176C28.4197 84.1935 28.4049 84.2693 28.3717 84.3377C28.2889 84.4463 28.1584 84.5081 28.0216 84.5036C27.6704 84.531 27.318 84.4659 27 84.3149C27.4687 84.7768 28.1089 85.0243 28.7677 84.9981C28.9045 85.0027 29.0351 84.9409 29.1178 84.8323C29.1508 84.7637 29.1666 84.6882 29.1638 84.6122C29.198 83.4536 29.0538 82.2967 28.7362 81.1817C28.5586 80.6667 28.4243 80.1379 28.3344 79.6008C28.198 78.1768 28.9397 76.8121 30.2112 76.1474C31.6173 75.4413 33.3937 75.7386 34.7425 74.9296C35.7899 74.2978 36.3638 73.1286 36.8804 72.0222C37.4543 70.813 37.7585 69.7667 38.938 69.0863C40.1174 68.4059 40.2437 67.2681 39.664 66.1103Z" fill="black"/>
<ellipse opacity="0.1" cx="266" cy="210.5" rx="11" ry="1.5" fill="#6C63FF"/>
<ellipse opacity="0.1" cx="178" cy="225" rx="8" ry="1" fill="#6C63FF"/>
<ellipse opacity="0.1" cx="106" cy="216" rx="8" ry="1" fill="#6C63FF"/>
<path d="M109.942 214.243C110.433 213.82 110.79 213.248 110.966 212.605C111.099 211.957 110.837 211.176 110.249 210.938C109.592 210.672 108.888 211.156 108.356 211.643C107.824 212.129 107.212 212.687 106.517 212.582C107.246 211.882 107.574 210.828 107.383 209.806C107.352 209.599 107.269 209.403 107.143 209.241C106.776 208.827 106.113 209.006 105.677 209.331C104.287 210.364 103.899 212.364 103.891 214.161C103.752 213.513 103.87 212.837 103.865 212.18C103.859 211.524 103.691 210.766 103.159 210.42C102.832 210.229 102.463 210.131 102.089 210.137C101.467 210.112 100.769 210.18 100.344 210.664C99.8089 211.264 99.9506 212.271 100.41 212.927C100.87 213.584 101.573 214.005 102.22 214.461C102.738 214.787 103.179 215.233 103.512 215.765C103.552 215.84 103.584 215.918 103.608 216H107.528C108.403 215.531 109.214 214.94 109.942 214.243Z" fill="#6C63FF"/>
<path d="M270.931 208.243C271.425 207.821 271.786 207.249 271.966 206.605C272.099 205.957 271.837 205.19 271.249 204.938C270.592 204.672 269.889 205.156 269.357 205.643C268.825 206.129 268.213 206.687 267.515 206.582C268.246 205.883 268.575 204.829 268.381 203.806C268.352 203.598 268.269 203.402 268.141 203.241C267.777 202.827 267.114 203.006 266.679 203.331C265.289 204.364 264.901 206.364 264.893 208.161C264.751 207.513 264.872 206.837 264.866 206.18C264.861 205.524 264.69 204.766 264.161 204.42C263.834 204.229 263.465 204.131 263.091 204.137C262.466 204.112 261.771 204.18 261.343 204.664C260.809 205.264 260.95 206.271 261.413 206.927C261.875 207.584 262.576 208.005 263.222 208.461C263.74 208.787 264.181 209.233 264.513 209.765C264.552 209.84 264.585 209.919 264.61 210H268.526C269.398 209.53 270.207 208.94 270.931 208.243Z" fill="#6C63FF"/>
<path d="M179.94 221.228C180.431 220.806 180.789 220.236 180.967 219.595C181.098 218.946 180.836 218.184 180.25 217.933C179.593 217.667 178.89 218.147 178.358 218.635C177.826 219.123 177.214 219.674 176.516 219.572C177.246 218.874 177.575 217.823 177.382 216.804C177.352 216.597 177.269 216.401 177.141 216.24C176.775 215.828 176.115 216.006 175.677 216.33C174.286 217.363 173.899 219.355 173.891 221.149C173.752 220.503 173.869 219.829 173.867 219.174C173.864 218.52 173.69 217.763 173.161 217.419C172.834 217.229 172.465 217.132 172.092 217.137C171.466 217.114 170.771 217.179 170.343 217.662C169.809 218.263 169.95 219.267 170.413 219.919C170.875 220.571 171.576 220.991 172.22 221.448C172.744 221.778 173.191 222.229 173.525 222.769C173.563 222.843 173.595 222.92 173.621 223H177.534C178.408 222.527 179.218 221.931 179.94 221.228Z" fill="#6C63FF"/>
<path fill-rule="evenodd" clip-rule="evenodd" d="M260.981 94.6547C257.376 94.5832 254.195 92.0244 252.392 88.9208C251.92 88.1795 251.623 87.3401 251.524 86.4665C251.537 86.2674 251.57 86.0701 251.623 85.8777C251.739 85.5867 251.831 85.2867 251.898 84.9808C251.913 84.8584 251.913 84.7345 251.898 84.6121V84.5956C251.986 83.9298 251.596 83.2887 251.107 82.8292C250.845 82.5835 250.553 82.3741 250.261 82.1646L250.261 82.1646C250.007 81.9822 249.753 81.7999 249.519 81.5938C247.969 80.2319 247.499 78.0473 247.469 75.9672V75.8572C247.476 75.495 247.492 75.132 247.507 74.7686V74.7686V74.7685C247.531 74.2401 247.554 73.711 247.549 73.1828C247.561 72.6765 247.539 72.17 247.483 71.6668C247.334 70.4066 246.856 69.1245 245.867 68.3211C244.56 67.2603 242.802 67.2962 241.038 67.3323C239.321 67.3675 237.598 67.4027 236.282 66.4254C236.079 66.2757 235.889 66.1032 235.699 65.9311C235.279 65.5498 234.862 65.171 234.32 65.0497C233.724 64.9066 233.106 65.0992 232.526 65.2918C230.559 65.9411 228.366 66.7968 227.597 68.7118C227.37 69.2799 227.293 69.8839 227.217 70.4875C227.145 71.0533 227.073 71.6186 226.877 72.1538C226.706 72.616 226.452 73.0374 226.197 73.4603L226.197 73.4603C226.043 73.7145 225.89 73.9693 225.754 74.2338C225.455 74.7619 225.309 75.3633 225.333 75.97C225.303 76.284 225.347 76.6008 225.462 76.8944C225.598 77.2451 225.817 77.5576 226.1 77.8051C225.996 78.0234 225.867 78.2284 225.715 78.416C225.451 78.7395 225.113 79.0146 224.776 79.2888L224.776 79.2888C224.471 79.537 224.166 79.7845 223.918 80.0668C222.951 81.1894 222.987 82.7164 223.465 84.0371C223.745 84.8102 224.155 85.5427 224.564 86.275C224.854 86.7937 225.144 87.3123 225.388 87.845C225.644 88.3953 225.85 89.0281 225.583 89.5839C225.455 89.8533 225.228 90.0769 225.001 90.3009L225.001 90.3009C224.903 90.3972 224.805 90.4935 224.715 90.5936C224.276 91.0865 224.002 91.7038 223.929 92.36C218.042 93.7055 218.039 98.4406 218.039 98.4406L214.863 106.458C214.863 106.458 214.355 107.806 213.764 109.587L210 108.912L212.599 113.298C212.102 115.084 211.753 116.74 211.868 117.571C211.868 117.571 210.701 123.074 212.778 124.034L217.366 126.1C217.564 126.221 217.777 126.313 218 126.376L218.187 126.458C218.322 126.525 218.481 126.525 218.616 126.458H218.641H218.69C218.783 126.468 218.878 126.454 218.965 126.42C219.068 126.366 219.149 126.277 219.193 126.169C219.194 126.161 219.194 126.153 219.193 126.144L220.567 125.746L221.731 127.121C222.256 127.49 222.77 127.812 223.273 128.101L221.481 146.04C221.481 146.04 221.19 169.883 220.314 175.312C219.987 177.323 219.984 178.693 220.108 179.626L220.075 179.687C220.292 181.219 220.855 181.522 220.855 181.522V181.5L220.888 181.522C221.153 180.826 221.468 180.15 221.83 179.5V179.89C221.814 181.915 221.751 184.747 221.556 186.587C221.198 189.718 222.465 200.091 222.465 200.091L222.902 209.528C222.973 211.129 222.602 212.719 221.83 214.123C220.795 216.008 219.446 218.658 219.358 219.832C219.354 219.896 219.354 219.961 219.358 220.025L217.061 222.702C217.061 222.702 216.182 224.059 218.16 224.606C219.223 224.903 221.061 224.606 222.534 224.257C223.86 223.952 224.8 222.771 224.803 221.409C225.182 220.109 225.82 218.899 226.677 217.851L227.048 220.022L229.52 220.636L229.836 214.684C229.965 214.35 230.023 213.992 230.007 213.633C230.493 209.402 228.861 209.782 228.861 209.782C228.902 209.821 228.93 209.873 228.941 209.93C228.913 209.883 228.886 209.834 228.861 209.784C227.858 207.803 228.35 204.557 228.35 204.557C228.35 204.557 229.649 195.125 230.105 192.635C230.427 190.877 230.295 185.115 230.188 181.888C230.188 181.753 230.188 181.613 230.174 181.5C234.001 181.45 238.691 181.318 241.988 180.999V181.39L241.378 203.676C241.337 205.096 241.05 206.498 240.529 207.82C240.529 207.835 240.521 207.85 240.512 207.865C240.507 207.875 240.502 207.885 240.499 207.894C239.769 209.756 239.354 211.726 239.268 213.724L238.993 220.806V221.002C238.502 221.192 237.727 221.739 237.705 223.327C237.672 225.652 241.763 224.876 241.763 224.876C245.854 224.876 245.884 220.611 245.884 220.611C245.884 220.611 246.016 216.701 246.208 214.085C246.394 211.557 245.647 212.01 245.595 212.044V212.035L245.609 211.834L246.117 204.158C246.117 204.158 249.884 191.364 250.469 188.909C250.884 187.168 250.711 181.913 250.574 179.004C250.574 178.87 250.574 178.743 250.557 178.619C251.722 178.515 252.755 178.504 253.17 178.504H253.359C253.359 178.504 253.164 157.956 252.678 150.203C252.192 142.449 251.412 135.373 249.461 133.24C248.285 131.953 246.645 127.974 245.529 125.027C247.856 126.036 250.27 126.828 252.741 127.394C258.912 128.687 258.069 123.322 258.069 123.322L257.442 113.177H257.483C257.461 110.519 257.233 107.867 256.802 105.245C256.478 103.234 255.978 101.154 255.214 99.4669C255.716 99.2754 256.211 99.0624 256.701 98.8519L256.701 98.8519L256.702 98.8513C256.866 98.7808 257.029 98.7105 257.192 98.6415C258.868 97.9014 260.764 96.8503 261 95.0399H260.918C260.949 94.9133 260.97 94.7845 260.981 94.6547ZM245.532 213.009L245.592 212.112L245.532 219.475V213.009ZM222.731 109.331C222.748 110.379 222.707 112.195 222.646 114.206L220.687 111.587L222.652 108.395L222.731 109.331ZM249.805 118.604L249.81 118.606H249.799C249.799 118.606 249.801 118.605 249.805 118.604ZM248.837 114.781L248.563 115.056C247.802 115.813 247.125 116.651 246.546 117.555L249.805 118.604C249.91 118.579 251.249 118.234 250.129 116.985C249.593 116.332 249.213 115.567 249.016 114.745L248.837 114.781ZM248.837 114.781L248.988 114.638L248.895 114.66L248.736 114.803L248.837 114.781Z" fill="url(#paint4_linear)"/>
<path d="M231 214L230.538 221L227.617 220.413L227 217.5L231 214Z" fill="#A27772"/>
<path opacity="0.1" d="M231 214L230.538 221L227.617 220.413L227 217.5L231 214Z" fill="black"/>
<path d="M239 221.23L242.848 222L245.694 219.563V212.701L245.756 211.763V211.735L245.771 211.537L246.288 203.918C246.288 203.918 250.136 191.22 250.734 188.791C251.158 187.061 250.981 181.843 250.842 178.961C250.785 177.778 250.734 176.989 250.734 176.989L242.242 175L242.062 181.326L241.442 203.44C241.399 204.849 241.105 206.24 240.571 207.552L240.543 207.626C239.803 209.479 239.387 211.437 239.31 213.421L239.026 220.449V220.644L239 221.23Z" fill="#CC818C"/>
<path opacity="0.1" d="M246 212.005V212.36L246.025 212L246 212.005Z" fill="black"/>
<path opacity="0.1" d="M239 222.235L243.024 223L246 220.579V220C245.981 220.262 245.82 220.497 245.571 220.626L245.53 220.648C244.144 221.321 242.573 221.606 241.012 221.467L239.44 221.344C239.299 221.359 239.16 221.39 239.027 221.437V221.631L239 222.235Z" fill="black"/>
<path d="M244.92 220.2L244.957 220.178C245.191 220.039 245.336 219.776 245.335 219.491L245.392 212.053C245.392 212.053 246.154 211.48 245.972 214.094C245.789 216.708 245.666 220.615 245.666 220.615C245.666 220.615 245.638 224.877 241.805 224.877C241.805 224.877 237.971 225.649 238 223.326C238.029 221.003 239.584 220.906 239.584 220.906L240.959 221.033C242.328 221.172 243.705 220.882 244.92 220.2Z" fill="#B07473"/>
<path d="M220.004 220.025C220.102 221.682 225.086 220.725 225.086 220.725L228.441 214.348C228.441 214.348 231.236 212.241 229.839 210.392C229.763 210.292 229.694 210.186 229.632 210.077V210.061C229.601 210.012 229.576 209.962 229.548 209.91C228.542 207.957 229.036 204.753 229.036 204.753C229.036 204.753 230.339 195.452 230.797 192.989C231.119 191.252 230.988 185.564 230.879 182.38C230.837 181.059 230.797 180.167 230.797 180.167L222.517 178C222.517 178 222.517 179.01 222.517 180.416C222.501 182.413 222.439 185.209 222.238 187.025C221.88 190.12 223.152 200.357 223.152 200.357L223.591 209.675C223.653 211.252 223.273 212.816 222.492 214.197C221.452 216.058 220.099 218.676 220.004 219.836C219.999 219.899 219.999 219.962 220.004 220.025Z" fill="#CC818C"/>
<path opacity="0.1" d="M220 220.018C220.096 221.687 224.97 220.723 224.97 220.723L228.25 214.301C228.25 214.301 230.984 212.179 229.617 210.317C229.543 210.216 229.475 210.11 229.415 210C229.371 210.973 228.321 213.4 228.321 213.4C228.321 213.4 225.612 218.863 224.768 220.114C223.923 221.365 220.161 219.883 220.022 219.839C220.01 219.898 220.002 219.957 220 220.018Z" fill="black"/>
<path d="M228.783 210.009C228.783 210.009 230.388 209.631 229.912 213.874C229.947 214.855 229.461 215.781 228.637 216.299C227.489 217.033 225.713 218.608 224.817 221.673C224.819 223.035 223.895 224.219 222.587 224.532C221.137 224.874 219.328 225.176 218.282 224.879C216.333 224.323 217.186 222.97 217.186 222.97L219.422 220.281C219.422 220.281 223.318 221.837 224.182 220.572C225.045 219.308 227.744 213.801 227.744 213.801C227.744 213.801 229.27 210.364 228.783 210.009Z" fill="#B07473"/>
<path opacity="0.1" d="M242.163 176L242 183C244.075 182.766 245.537 182.437 245.791 181.977C246.333 180.988 248.314 180.568 250 180.398C249.948 179.089 249.901 178.216 249.901 178.216L242.163 176Z" fill="black"/>
<path opacity="0.1" d="M222 181.193C222.205 180.807 222.505 180.472 222.874 180.214C223.717 179.78 223.626 182.993 223.626 182.993C223.626 182.993 226.42 183.018 230 182.975C229.96 181.774 229.922 180.967 229.922 180.967L222.003 179C222.003 179 222.013 179.916 222 181.193Z" fill="black"/>
<path d="M220.863 181.999C220.863 181.999 221.829 179.414 222.695 178.939C223.561 178.464 223.47 181.993 223.47 181.993C223.47 181.993 244.7 182.184 245.762 180.56C246.825 178.936 253 179.034 253 179.034C253 179.034 252.807 158.796 252.324 151.159C251.841 143.522 251.069 136.554 249.14 134.455C247.89 133.091 246.105 128.699 245.017 125.768C244.419 124.165 244.024 123 244.024 123L223.76 124.146L223.594 125.768L221.442 147.057C221.442 147.057 221.166 170.53 220.283 175.885C219.4 181.24 220.863 181.999 220.863 181.999Z" fill="#6074F9"/>
<g opacity="0.1">
<path d="M244.126 181.319C245.182 179.677 251.339 179.773 251.339 179.773C251.339 179.773 251.146 159.271 250.665 151.535C250.184 143.798 249.414 136.739 247.492 134.613C246.246 133.23 244.467 128.782 243.383 125.812C242.883 124.449 242.525 123.398 242.423 123.097L243.991 123.008C243.991 123.008 244.384 124.189 244.981 125.812C246.081 128.782 247.844 133.236 249.089 134.613C251.014 136.739 251.782 143.798 252.263 151.535C252.744 159.271 252.926 179.759 252.926 179.759C252.926 179.759 246.771 179.66 245.715 181.319C244.81 182.724 229.24 182.787 224.719 182.776C230.516 182.748 243.301 182.574 244.126 181.319Z" fill="black"/>
<path d="M221.127 179.66C221.518 179.441 221.713 180.047 221.809 180.766C221.461 181.404 221.156 182.065 220.899 182.746C220.899 182.746 220.349 182.444 220.129 180.915C220.434 180.37 220.789 179.851 221.127 179.66Z" fill="black"/>
</g>
<path d="M226.923 72.9367C225.562 74.8704 226.939 77.6149 225.479 79.4928C224.996 80.1142 224.254 80.5572 223.751 81.1646C222.818 82.2958 222.856 83.8283 223.314 85.1573C223.772 86.4864 224.6 87.6928 225.168 88.9857C225.414 89.5429 225.613 90.1754 225.358 90.7327C225.181 91.12 224.822 91.4125 224.522 91.7497C223.585 92.8391 223.558 94.3548 224.061 95.6365C224.565 96.9182 225.532 98.0299 226.473 99.111C226.848 99.5401 227.322 100.011 227.946 99.9998C228.275 99.972 228.593 99.8631 228.873 99.6822C231.095 98.4654 232.781 96.4047 233.58 93.9285C234.255 91.599 234.113 89.0957 233.178 86.8653C232.374 84.8954 231.067 83.0063 231.056 80.9222C231.056 79.2699 231.873 77.6929 232.018 76.0462C232.195 74.0485 231.056 70.8721 228.736 70C228.889 71.29 227.624 71.956 226.923 72.9367Z" fill="#585268"/>
<path opacity="0.1" d="M226.923 72.9367C225.562 74.8704 226.939 77.6149 225.479 79.4928C224.996 80.1142 224.254 80.5572 223.751 81.1646C222.818 82.2958 222.856 83.8283 223.314 85.1573C223.772 86.4864 224.6 87.6928 225.168 88.9857C225.414 89.5429 225.613 90.1754 225.358 90.7327C225.181 91.12 224.822 91.4125 224.522 91.7497C223.585 92.8391 223.558 94.3548 224.061 95.6365C224.565 96.9182 225.532 98.0299 226.473 99.111C226.848 99.5401 227.322 100.011 227.946 99.9998C228.275 99.972 228.593 99.8631 228.873 99.6822C231.095 98.4654 232.781 96.4047 233.58 93.9285C234.255 91.599 234.113 89.0957 233.178 86.8653C232.374 84.8954 231.067 83.0063 231.056 80.9222C231.056 79.2699 231.873 77.6929 232.018 76.0462C232.195 74.0485 231.056 70.8721 228.736 70C228.889 71.29 227.624 71.956 226.923 72.9367Z" fill="black"/>
<path opacity="0.1" d="M244 143C241.08 143.158 238.333 144.436 235.778 145.883C233.222 147.33 230.75 148.982 228 150" fill="black"/>
<path opacity="0.1" d="M241 149C238.26 149.267 235.707 150.529 233.808 152.555C233.136 153.279 232.556 154.093 231.855 154.787C230.779 155.85 229.451 156.612 228 157" fill="black"/>
<path opacity="0.1" d="M242 154C239.745 154.62 237.704 155.838 236.098 157.523C235.665 157.985 235.265 158.483 234.837 158.942C232.496 161.417 229.191 162.751 226 164" fill="black"/>
<path d="M242.094 84.1373C242.156 86.4187 242.349 88.6945 242.671 90.953C242.929 92.563 243.297 93.9962 243.824 94.6329C245.36 96.4981 236.331 99 236.331 99L231 94.7928C231 94.7928 235.227 90.8184 233.258 86.9393C231.288 83.0603 242.094 84.1373 242.094 84.1373Z" fill="#CC818C"/>
<path opacity="0.1" d="M224 126H246C245.385 124.263 244.98 123 244.98 123L224.17 124.243L224 126Z" fill="black"/>
<path d="M222.182 125H245.09C244.447 122.689 245.09 120.548 246.009 118.905C246.652 117.75 247.46 116.697 248.408 115.78L248.565 115.638L256.569 113.857L257 113.763C257 113.763 257.063 99.1646 251.916 97.1615C246.768 95.1584 243.677 92.4516 243.677 92.4516L236.6 94.6459L231.386 92C229.714 93.8092 225.273 93.1082 225.273 93.1082C218 93.9394 218 99.4389 218 99.4389C218 99.4389 222.248 109.388 222.571 109.388C222.894 109.388 222.182 125 222.182 125Z" fill="#67647E"/>
<path opacity="0.1" d="M230 116C230 116 225.523 114.909 224 113L230 116Z" fill="black"/>
<path opacity="0.1" d="M254.189 110L249 114.049C249.038 114.369 249.095 114.686 249.172 115L249.323 114.872L257 113.254L254.189 110Z" fill="black"/>
<path opacity="0.1" d="M240 123.428C240 123.428 241.181 124.109 242.988 125H246.086C245.446 122.655 246.086 120.481 247 118.814L241.527 117C243.394 118.772 240 123.428 240 123.428Z" fill="black"/>
<path d="M221.751 97L218.502 98.754L215.317 106.816C215.317 106.816 212.004 115.659 212.327 118.001C212.327 118.001 211.159 123.525 213.238 124.501L218.661 126.955C218.856 127.044 219.087 126.998 219.234 126.841C219.381 126.684 219.412 126.45 219.31 126.261C218.538 124.797 217.691 122.51 219.031 121.241L217.471 117.993L223.119 108.768L225 105.594L221.751 97Z" fill="#67647E"/>
<path opacity="0.1" d="M229.031 113.221C229.296 114.372 230.203 116.142 233.193 116.81L236.484 119.644L239.975 121.321L241.396 122L242 117.405L240.63 116.614L239.039 115.694C239.039 115.694 235.438 108.807 229.731 111.717C229.191 111.982 228.9 112.608 229.031 113.221Z" fill="black"/>
<path d="M229.031 113.217C229.296 114.369 230.202 116.138 233.192 116.806L236.484 119.644L239.975 121.321L241.396 122L242 117.404L240.63 116.616L239.039 115.694C239.039 115.694 235.437 108.809 229.731 111.716C229.192 111.981 228.901 112.605 229.031 113.217Z" fill="#CC818C"/>
<circle opacity="0.1" cx="235" cy="82" r="8" fill="black"/>
<circle cx="235" cy="82" r="8" fill="#CC818C"/>
<path opacity="0.1" d="M240.551 99L238 94.4225C238 94.4225 241.752 93.0321 242.024 91.4177C242.296 89.8034 245.618 93.3081 244.898 94.4694C244.178 95.6307 240.551 99 240.551 99Z" fill="black"/>
<path d="M240.551 99L238 94.4224C238 94.4224 241.752 93.0319 242.024 91.4175C242.296 89.8031 245.618 93.3105 244.898 94.4693C244.178 95.628 240.551 99 240.551 99Z" fill="#67647E"/>
<path d="M221.061 111.782L235 130.236C235 130.236 229.865 132.983 222.778 128.058L219.712 124.474L211 110L221.061 111.782Z" fill="#F6F8FB"/>
<path d="M217.323 121.673L218.526 121.641C218.526 121.641 225.876 114.355 227.679 118.041C229.482 121.727 223.102 125.165 223.102 125.165L221.162 126.244L218.618 127L217 124.782L217.323 121.673Z" fill="#CC818C"/>
<path opacity="0.1" d="M219.864 126.261C219.978 126.729 220.087 127.246 219.896 127.682C219.853 127.799 219.773 127.895 219.671 127.954C219.585 127.993 219.492 128.008 219.399 127.996C218.745 127.934 218.136 127.598 217.696 127.056C217.261 126.518 216.89 125.92 216.59 125.278C216.253 124.628 215.903 123.902 216.025 123.162C216.158 122.351 216.807 121.789 217.427 121.348C218.679 120.426 218.709 121.499 218.994 122.684L219.864 126.261Z" fill="black"/>
<path d="M218.864 126.261C218.978 126.729 219.087 127.246 218.896 127.682C218.853 127.799 218.773 127.895 218.671 127.954C218.585 127.993 218.492 128.008 218.399 127.996C217.745 127.934 217.136 127.598 216.696 127.056C216.261 126.518 215.89 125.92 215.59 125.278C215.253 124.628 214.903 123.902 215.025 123.162C215.158 122.351 215.807 121.789 216.427 121.348C217.679 120.426 217.709 121.499 217.994 122.684L218.864 126.261Z" fill="#67647E"/>
<path opacity="0.1" d="M223 109.077L224 108L223.124 110L223 109.077Z" fill="black"/>
<path opacity="0.1" d="M240 121.369L241.403 122L242 117.732L240.647 117C241.571 118.054 240.762 120.011 240 121.369Z" fill="black"/>
<path opacity="0.1" d="M247 115.974C247 115.974 242.084 116.252 240 115L247 115.974Z" fill="black"/>
<g opacity="0.1">
<path d="M246.264 118.705C246.902 117.56 247.704 116.515 248.643 115.603C248.869 115.461 249.103 115.332 249.344 115.218L256.728 113.695L257.155 113.601C257.155 113.601 257.22 99.1115 252.117 97.1232C249.257 96.0265 246.575 94.5074 244.161 92.616L244.721 92.4427C244.721 92.4427 247.782 95.135 252.883 97.1177C257.984 99.1005 257.926 113.601 257.926 113.601H257.16L249.601 115.056L249.174 115.466C248.226 116.419 247.413 117.499 246.759 118.675C245.761 120.54 245.534 122.726 246.127 124.758H245.345C244.716 122.465 245.364 120.339 246.264 118.705Z" fill="black"/>
<path d="M226.109 93.1495C226.232 93.1275 226.35 93.1018 226.476 93.0835C226.994 93.1815 227.515 93.2391 228.038 93.2558C227.394 93.2796 226.75 93.244 226.109 93.1495H226.109Z" fill="black"/>
<path d="M236.935 94.6207L232.263 92.253C232.36 92.1762 232.452 92.0926 232.537 92.0027L237.411 94.4777L236.935 94.6207Z" fill="black"/>
</g>
<path d="M255.063 110L258.301 113.946L258.961 124.656C258.961 124.656 259.811 130.109 253.544 128.796C247.276 127.482 240 123.407 240 123.407C240 123.407 243.502 118.74 241.587 116.967L250.572 119.859C250.572 119.859 252.09 119.529 250.9 118.216C249.71 116.902 249.5 114.535 249.5 114.535L255.063 110Z" fill="#67647E"/>
<path opacity="0.1" d="M255 121L256 123C255.476 122.72 255.088 121.945 255 121H255Z" fill="black"/>
<path opacity="0.1" d="M252 120L255 123.66L253.502 124L252 120Z" fill="black"/>
<path opacity="0.1" d="M226.137 77.4952C225.842 76.767 226.066 75.9252 226.411 75.2247C226.756 74.5242 227.251 73.8873 227.506 73.1452C227.903 72.0377 227.78 70.7972 228.212 69.7062C228.97 67.7956 231.125 66.9373 233.057 66.2921C233.627 66.1011 234.234 65.9072 234.82 66.0485C235.592 66.2367 236.109 66.9539 236.736 67.4329C239.359 69.4099 243.621 67.2336 246.155 69.3269C247.127 70.1271 247.598 71.4119 247.743 72.669C247.888 73.9261 247.743 75.2025 247.729 76.4707C247.688 78.6859 248.096 81.117 249.741 82.5873C250.237 83.0303 250.82 83.3654 251.302 83.8222C251.783 84.2791 252.164 84.9298 252.079 85.5861C252.011 85.8909 251.919 86.19 251.805 86.4804C251.477 87.6378 251.964 88.8645 252.558 89.9084C254.332 93.0096 257.455 95.5653 261 95.6373C260.762 97.4454 258.906 98.4948 257.258 99.2369C255.159 100.181 252.952 101.109 250.658 100.99C248.364 100.871 245.972 99.3864 245.564 97.1131C245.424 96.3295 245.444 95.3687 244.77 94.9561C244.365 94.7069 243.84 94.7706 243.402 94.5823C242.769 94.3054 242.454 93.6021 242.246 92.9376C241.819 91.5716 241.589 90.1502 241.565 88.7177C241.537 87.0204 241.762 85.1679 240.809 83.7696C239.928 82.4765 238.362 81.8314 237.347 80.6297C236.41 79.5221 235.389 78.1985 233.854 77.9881C231.79 77.6863 227.394 80.6075 226.137 77.4952Z" fill="black"/>
<path d="M226.137 77.4952C225.842 76.767 226.066 75.9252 226.411 75.2247C226.756 74.5242 227.251 73.8873 227.506 73.1452C227.903 72.0377 227.78 70.7972 228.212 69.7062C228.97 67.7956 231.125 66.9373 233.057 66.2921C233.627 66.1011 234.234 65.9072 234.82 66.0485C235.592 66.2367 236.109 66.9539 236.736 67.4329C239.359 69.4127 243.621 67.2336 246.155 69.3269C247.127 70.1299 247.598 71.4119 247.743 72.669C247.888 73.9261 247.743 75.2025 247.729 76.4707C247.688 78.6859 248.096 81.117 249.741 82.5873C250.237 83.0303 250.82 83.3654 251.302 83.8222C251.783 84.2791 252.164 84.9298 252.079 85.586C252.011 85.8917 251.919 86.1916 251.805 86.4832C251.477 87.6378 251.964 88.8672 252.558 89.9083C254.332 93.0096 257.455 95.5653 261 95.6373C260.762 97.4454 258.906 98.4948 257.258 99.2369C255.159 100.184 252.952 101.109 250.658 100.99C248.364 100.871 245.972 99.3864 245.564 97.0993C245.424 96.3157 245.444 95.3548 244.77 94.9423C244.365 94.6931 243.84 94.7567 243.402 94.5685C242.769 94.2916 242.454 93.5883 242.246 92.9237C241.819 91.5578 241.589 90.1364 241.565 88.7039C241.537 87.0065 241.762 85.1541 240.809 83.7558C239.928 82.4627 238.362 81.8175 237.347 80.6158C236.41 79.5082 235.389 78.1847 233.854 77.9742C231.79 77.7001 227.394 80.6075 226.137 77.4952Z" fill="#585268"/>
<path opacity="0.1" d="M231.791 98L237 94.4605C237 94.4605 233.435 92.8424 233.009 91.462C232.583 90.0816 229.731 92.1168 230.021 93.3556C230.311 94.5945 231.791 98 231.791 98Z" fill="black"/>
<path d="M231.791 98L237 94.4605C237 94.4605 233.435 92.8424 233.009 91.462C232.583 90.0816 229.731 92.1168 230.021 93.3556C230.311 94.5945 231.791 98 231.791 98Z" fill="#67647E"/>
<circle opacity="0.1" cx="237.5" cy="97.5" r="0.5" fill="black"/>
<circle opacity="0.1" cx="237.5" cy="100.5" r="0.5" fill="black"/>
<circle opacity="0.1" cx="237.5" cy="102.5" r="0.5" fill="black"/>
<g opacity="0.1">
<path d="M228.157 72.2414C228.537 71.2069 228.456 70.0483 228.81 69.0083C228.648 69.2389 228.512 69.4869 228.406 69.7476C227.965 70.8345 228.087 72.0759 227.686 73.1765C227.686 73.1959 227.666 73.2179 227.658 73.24C227.855 72.9229 228.022 72.5886 228.157 72.2414Z" fill="black"/>
<path d="M258.517 98.2359C256.377 99.1793 254.128 100.101 251.786 99.9821C249.445 99.8635 247.011 98.3848 246.595 96.1062C246.453 95.3255 246.473 94.3683 245.786 93.9573C245.373 93.709 244.837 93.7724 244.391 93.5848C243.743 93.309 243.425 92.6083 243.213 91.9462C242.777 90.5836 242.543 89.1656 242.518 87.7366C242.49 86.0455 242.716 84.2 241.748 82.8069C240.849 81.5186 239.253 80.8759 238.218 79.6786C237.261 78.5752 236.222 77.2566 234.654 77.0469C232.505 76.771 228.021 79.6676 226.742 76.5669C226.538 75.9808 226.566 75.3395 226.823 74.7738C226.731 74.9283 226.642 75.0828 226.561 75.24C226.198 75.9379 225.969 76.7766 226.282 77.5021C227.563 80.6028 232.045 77.6924 234.196 77.9821C235.762 78.1917 236.803 79.5186 237.76 80.6138C238.795 81.8 240.389 82.4538 241.288 83.7448C242.259 85.1241 242.033 86.9835 242.061 88.6717C242.084 90.0998 242.317 91.517 242.753 92.8786C242.965 93.5379 243.286 94.2579 243.93 94.5173C244.377 94.7021 244.913 94.6414 245.326 94.8897C246.009 95.2979 245.993 96.269 246.132 97.0359C246.548 99.3145 248.987 100.796 251.326 100.914C253.664 101.033 255.916 100.109 258.054 99.1655C259.595 98.4897 261.311 97.549 261.771 96.0097C261.023 97.0221 259.717 97.709 258.517 98.2359Z" fill="black"/>
</g>
</svg>
