<svg xmlns="http://www.w3.org/2000/svg" viewBox="0 0 32 32"><path d="M9.75 3.5C7.050781 4.855469 4.855469 7.050781 3.5 9.75L5.28125 10.625C6.441406 8.3125 8.3125 6.441406 10.625 5.28125 Z M 22.25 3.5L21.375 5.28125C23.6875 6.441406 25.558594 8.3125 26.71875 10.625L28.5 9.75C27.144531 7.050781 24.949219 4.855469 22.25 3.5 Z M 16 5C9.9375 5 5 9.9375 5 16C5 18.953125 6.164063 21.648438 8.0625 23.625L5.96875 26.9375L7.65625 28L9.59375 24.9375C11.398438 26.234375 13.617188 27 16 27C18.382813 27 20.601563 26.234375 22.40625 24.9375L24.3125 28L26 26.9375L23.9375 23.625C25.835938 21.648438 27 18.953125 27 16C27 9.9375 22.0625 5 16 5 Z M 16 7C20.980469 7 25 11.019531 25 16C25 20.980469 20.980469 25 16 25C11.019531 25 7 20.980469 7 16C7 11.019531 11.019531 7 16 7 Z M 15 9L15 17L21 17L21 15L17 15L17 9Z"/></svg>