<svg width="20" height="21" viewBox="0 0 20 21" fill="none" xmlns="http://www.w3.org/2000/svg">
<mask id="mask0" mask-type="alpha" maskUnits="userSpaceOnUse" x="0" y="0" width="20" height="21">
<path fill-rule="evenodd" clip-rule="evenodd" d="M0 0.0390625H20V20.039H0V0.0390625Z" fill="white"/>
</mask>
<g mask="url(#mask0)">
<path fill-rule="evenodd" clip-rule="evenodd" d="M17.4443 18.861H2.55566C1.79602 18.861 1.17805 18.243 1.17805 17.4834V15.3347L5.0552 12.0358C5.19664 11.9154 5.40305 11.9143 5.54586 12.0329L7.97457 14.0496C8.20875 14.2441 8.5525 14.2281 8.7677 14.0127L14.5383 8.23316C14.6426 8.12867 14.7642 8.11852 14.8277 8.12176C14.891 8.12504 15.0111 8.14762 15.1041 8.26223L18.822 12.84V17.4834C18.822 18.243 18.2039 18.861 17.4443 18.861ZM2.55566 1.21711H17.4443C18.2039 1.21711 18.822 1.83512 18.822 2.59473V10.9713L16.0186 7.51949C15.7406 7.17715 15.3285 6.96785 14.888 6.94523C14.4479 6.92297 14.0163 7.08867 13.7046 7.40078L8.31375 12.8L6.29852 11.1266C5.71418 10.6414 4.87027 10.6464 4.29176 11.1387L1.17805 13.7879V2.59473C1.17805 1.83512 1.79602 1.21711 2.55566 1.21711ZM17.4443 0.0390625H2.55566C1.14645 0.0390625 0 1.18555 0 2.59473V17.4834C0 18.8926 1.14645 20.039 2.55566 20.039H17.4443C18.8535 20.039 20 18.8926 20 17.4834V2.59473C20 1.18555 18.8535 0.0390625 17.4443 0.0390625Z" fill="#9E9E9E"/>
</g>
<path fill-rule="evenodd" clip-rule="evenodd" d="M6.2958 3.6778C7.21244 3.6778 7.95814 4.42354 7.95814 5.34015C7.95814 6.25671 7.21244 7.00245 6.2958 7.00245C5.37919 7.00245 4.63349 6.25671 4.63349 5.34015C4.63349 4.42351 5.37919 3.6778 6.2958 3.6778ZM6.2958 8.1805C7.86201 8.1805 9.13615 6.90632 9.13615 5.34015C9.13615 3.77394 7.86201 2.49976 6.2958 2.49976C4.72958 2.49976 3.45544 3.77397 3.45544 5.34015C3.45544 6.90628 4.72958 8.1805 6.2958 8.1805Z" fill="#9E9E9E"/>
</svg>
